<mxfile host="Electron" agent="Mozilla/5.0 (Windows NT 10.0; Win64; x64) AppleWebKit/537.36 (KHTML, like Gecko) draw.io/24.7.8 Chrome/128.0.6613.36 Electron/32.0.1 Safari/537.36" version="24.7.8">
  <diagram name="DF" id="d0osDJOmNnhoOv3IcKxl">
    <mxGraphModel dx="9020" dy="4487" grid="1" gridSize="10" guides="1" tooltips="1" connect="1" arrows="1" fold="1" page="1" pageScale="1" pageWidth="1654" pageHeight="1169" math="0" shadow="0">
      <root>
        <mxCell id="Cwkt_I89dFHHF9JNfeiC-0" />
        <mxCell id="Cwkt_I89dFHHF9JNfeiC-1" parent="Cwkt_I89dFHHF9JNfeiC-0" />
        <mxCell id="eKgTTuWWJ7yaaGClwAdR-0" value="LAN" style="html=1;outlineConnect=0;whiteSpace=wrap;fillColor=#AFFFAF;shape=mxgraph.archimate3.application;appType=netw;archiType=square;align=left;verticalAlign=top;movable=0;resizable=0;rotatable=0;deletable=0;editable=0;locked=1;connectable=0;" vertex="1" parent="Cwkt_I89dFHHF9JNfeiC-1">
          <mxGeometry x="20" y="40" width="3620" height="2680" as="geometry" />
        </mxCell>
        <mxCell id="Cwkt_I89dFHHF9JNfeiC-5" value="Портал электронной площадки" style="html=1;outlineConnect=0;whiteSpace=wrap;fillColor=#99ffff;shape=mxgraph.archimate3.application;appType=comp;archiType=square;align=left;verticalAlign=top;" vertex="1" parent="Cwkt_I89dFHHF9JNfeiC-1">
          <mxGeometry x="1940" y="80" width="1220" height="320" as="geometry" />
        </mxCell>
        <mxCell id="Cwkt_I89dFHHF9JNfeiC-6" value="&lt;div&gt;&lt;span style=&quot;background-color: initial;&quot;&gt;[REACT/HTML/CSS]&lt;/span&gt;&lt;br&gt;&lt;/div&gt;" style="html=1;outlineConnect=0;whiteSpace=wrap;fillColor=#99ffff;shape=mxgraph.archimate3.application;appType=serv;archiType=rounded;align=left;verticalAlign=top;" vertex="1" parent="Cwkt_I89dFHHF9JNfeiC-1">
          <mxGeometry x="1970" y="130" width="1150" height="220" as="geometry" />
        </mxCell>
        <mxCell id="Cwkt_I89dFHHF9JNfeiC-7" value="&lt;span style=&quot;&quot;&gt;Система управления торговыми площадками&lt;/span&gt;" style="html=1;outlineConnect=0;whiteSpace=wrap;fillColor=#99ffff;shape=mxgraph.archimate3.application;appType=comp;archiType=square;align=left;verticalAlign=top;movable=0;resizable=0;rotatable=0;deletable=0;editable=0;locked=1;connectable=0;" vertex="1" parent="Cwkt_I89dFHHF9JNfeiC-1">
          <mxGeometry x="50" y="440" width="3530" height="1280" as="geometry" />
        </mxCell>
        <mxCell id="Cwkt_I89dFHHF9JNfeiC-9" value="&lt;span style=&quot;font-size: 13px;&quot;&gt;Зарегистрироваться на площадке&lt;/span&gt;" style="html=1;outlineConnect=0;whiteSpace=wrap;fillColor=#99ffff;shape=mxgraph.archimate3.application;appType=func;archiType=rounded;fontColor=default;labelBackgroundColor=none;strokeColor=default;align=center;verticalAlign=middle;fontFamily=Helvetica;fontSize=12;" vertex="1" parent="Cwkt_I89dFHHF9JNfeiC-1">
          <mxGeometry x="2015" y="220" width="150" height="75" as="geometry" />
        </mxCell>
        <mxCell id="Cwkt_I89dFHHF9JNfeiC-10" value="&lt;span style=&quot;font-size: 13px;&quot;&gt;Разместить услугу&lt;/span&gt;" style="html=1;outlineConnect=0;whiteSpace=wrap;fillColor=#99ffff;shape=mxgraph.archimate3.application;appType=func;archiType=rounded;fontColor=default;labelBackgroundColor=none;strokeColor=default;align=center;verticalAlign=middle;fontFamily=Helvetica;fontSize=12;" vertex="1" parent="Cwkt_I89dFHHF9JNfeiC-1">
          <mxGeometry x="2565" y="220" width="150" height="75" as="geometry" />
        </mxCell>
        <mxCell id="Cwkt_I89dFHHF9JNfeiC-11" value="&lt;span style=&quot;font-size: 13px;&quot;&gt;Редактировать профиль&lt;/span&gt;" style="html=1;outlineConnect=0;whiteSpace=wrap;fillColor=#99ffff;shape=mxgraph.archimate3.application;appType=func;archiType=rounded;fontColor=default;labelBackgroundColor=none;strokeColor=default;align=center;verticalAlign=middle;fontFamily=Helvetica;fontSize=12;" vertex="1" parent="Cwkt_I89dFHHF9JNfeiC-1">
          <mxGeometry x="2195" y="220" width="150" height="75" as="geometry" />
        </mxCell>
        <mxCell id="Cwkt_I89dFHHF9JNfeiC-12" value="&lt;span style=&quot;font-size: 13px;&quot;&gt;Создать аукцион&lt;/span&gt;" style="html=1;outlineConnect=0;whiteSpace=wrap;fillColor=#99ffff;shape=mxgraph.archimate3.application;appType=func;archiType=rounded;fontColor=default;labelBackgroundColor=none;strokeColor=default;align=center;verticalAlign=middle;fontFamily=Helvetica;fontSize=12;" vertex="1" parent="Cwkt_I89dFHHF9JNfeiC-1">
          <mxGeometry x="2745" y="220" width="150" height="75" as="geometry" />
        </mxCell>
        <mxCell id="Cwkt_I89dFHHF9JNfeiC-13" value="&lt;span style=&quot;font-size: 13px;&quot;&gt;Разместить заказ&lt;/span&gt;" style="html=1;outlineConnect=0;whiteSpace=wrap;fillColor=#99ffff;shape=mxgraph.archimate3.application;appType=func;archiType=rounded;fontColor=default;labelBackgroundColor=none;strokeColor=default;align=center;verticalAlign=middle;fontFamily=Helvetica;fontSize=12;" vertex="1" parent="Cwkt_I89dFHHF9JNfeiC-1">
          <mxGeometry x="2385" y="220" width="150" height="75" as="geometry" />
        </mxCell>
        <mxCell id="Cwkt_I89dFHHF9JNfeiC-14" value="&lt;span style=&quot;font-size: 13px;&quot;&gt;Подать заявку на аукцион&lt;/span&gt;" style="html=1;outlineConnect=0;whiteSpace=wrap;fillColor=#99ffff;shape=mxgraph.archimate3.application;appType=func;archiType=rounded;fontColor=default;labelBackgroundColor=none;strokeColor=default;align=center;verticalAlign=middle;fontFamily=Helvetica;fontSize=12;" vertex="1" parent="Cwkt_I89dFHHF9JNfeiC-1">
          <mxGeometry x="2925" y="220" width="150" height="75" as="geometry" />
        </mxCell>
        <mxCell id="Cwkt_I89dFHHF9JNfeiC-61" value="PostgreSQL&lt;div&gt;(&lt;font color=&quot;#ff0000&quot;&gt;Patroni Cluster&lt;/font&gt;&lt;span style=&quot;background-color: initial;&quot;&gt;)&lt;/span&gt;&lt;/div&gt;" style="html=1;outlineConnect=0;whiteSpace=wrap;fillColor=#AFFFAF;shape=mxgraph.archimate3.application;appType=sysSw;archiType=square;align=left;verticalAlign=top;strokeColor=#FF0000;movable=0;resizable=0;rotatable=0;deletable=0;editable=0;locked=1;connectable=0;" vertex="1" parent="Cwkt_I89dFHHF9JNfeiC-1">
          <mxGeometry x="50" y="1770" width="3530" height="920" as="geometry" />
        </mxCell>
        <mxCell id="eKgTTuWWJ7yaaGClwAdR-1" value="WAN" style="html=1;outlineConnect=0;whiteSpace=wrap;fillColor=#AFFFAF;shape=mxgraph.archimate3.application;appType=netw;archiType=square;align=left;verticalAlign=top;movable=1;resizable=1;rotatable=1;deletable=1;editable=1;locked=0;connectable=1;container=0;" vertex="1" parent="Cwkt_I89dFHHF9JNfeiC-1">
          <mxGeometry x="3980" y="40" width="780" height="1050" as="geometry" />
        </mxCell>
        <mxCell id="NQUhaPXB7SI2o4ro_eER-1" value="Платежные системы" style="html=1;outlineConnect=0;whiteSpace=wrap;fillColor=#99ffff;shape=mxgraph.archimate3.application;appType=comp;archiType=square;align=left;verticalAlign=top;movable=1;resizable=1;rotatable=1;deletable=1;editable=1;locked=0;connectable=1;container=0;" vertex="1" parent="Cwkt_I89dFHHF9JNfeiC-1">
          <mxGeometry x="4050" y="100" width="680" height="920" as="geometry" />
        </mxCell>
        <mxCell id="Cwkt_I89dFHHF9JNfeiC-3" value="" style="html=1;outlineConnect=0;whiteSpace=wrap;fillColor=#99ffff;shape=mxgraph.archimate3.application;appType=collab;archiType=square;align=left;verticalAlign=top;movable=1;resizable=1;rotatable=1;deletable=1;editable=1;locked=0;connectable=1;container=0;" vertex="1" parent="Cwkt_I89dFHHF9JNfeiC-1">
          <mxGeometry x="4140" y="320" width="520" height="260" as="geometry" />
        </mxCell>
        <mxCell id="Cwkt_I89dFHHF9JNfeiC-107" value="&lt;span style=&quot;font-size: 13px;&quot;&gt;Инициировать платеж&lt;/span&gt;" style="html=1;outlineConnect=0;whiteSpace=wrap;fillColor=#99ffff;shape=mxgraph.archimate3.application;appType=func;archiType=rounded;fontColor=default;labelBackgroundColor=none;strokeColor=default;align=center;verticalAlign=middle;fontFamily=Helvetica;fontSize=12;movable=1;resizable=1;rotatable=1;deletable=1;editable=1;locked=0;connectable=1;container=0;" vertex="1" parent="Cwkt_I89dFHHF9JNfeiC-1">
          <mxGeometry x="4205.25" y="375" width="150" height="75" as="geometry" />
        </mxCell>
        <mxCell id="Cwkt_I89dFHHF9JNfeiC-108" value="&lt;span style=&quot;font-size: 13px;&quot;&gt;Подтвердить платеж&lt;/span&gt;" style="html=1;outlineConnect=0;whiteSpace=wrap;fillColor=#99ffff;shape=mxgraph.archimate3.application;appType=func;archiType=rounded;fontColor=default;labelBackgroundColor=none;strokeColor=default;align=center;verticalAlign=middle;fontFamily=Helvetica;fontSize=12;movable=1;resizable=1;rotatable=1;deletable=1;editable=1;locked=0;connectable=1;container=0;" vertex="1" parent="Cwkt_I89dFHHF9JNfeiC-1">
          <mxGeometry x="4434.75" y="375" width="150" height="75" as="geometry" />
        </mxCell>
        <mxCell id="Cwkt_I89dFHHF9JNfeiC-109" value="&lt;span style=&quot;font-size: 13px;&quot;&gt;Предоставить статус платежа&lt;/span&gt;" style="html=1;outlineConnect=0;whiteSpace=wrap;fillColor=#99ffff;shape=mxgraph.archimate3.application;appType=func;archiType=rounded;fontColor=default;labelBackgroundColor=none;strokeColor=default;align=center;verticalAlign=middle;fontFamily=Helvetica;fontSize=12;movable=1;resizable=1;rotatable=1;deletable=1;editable=1;locked=0;connectable=1;container=0;" vertex="1" parent="Cwkt_I89dFHHF9JNfeiC-1">
          <mxGeometry x="4205.25" y="470" width="150" height="75" as="geometry" />
        </mxCell>
        <mxCell id="Cwkt_I89dFHHF9JNfeiC-110" value="&lt;span style=&quot;font-size: 13px;&quot;&gt;Подтвердить отмену платежа&lt;/span&gt;" style="html=1;outlineConnect=0;whiteSpace=wrap;fillColor=#99ffff;shape=mxgraph.archimate3.application;appType=func;archiType=rounded;fontColor=default;labelBackgroundColor=none;strokeColor=default;align=center;verticalAlign=middle;fontFamily=Helvetica;fontSize=12;movable=1;resizable=1;rotatable=1;deletable=1;editable=1;locked=0;connectable=1;container=0;" vertex="1" parent="Cwkt_I89dFHHF9JNfeiC-1">
          <mxGeometry x="4434.75" y="470" width="150" height="75" as="geometry" />
        </mxCell>
        <mxCell id="Cwkt_I89dFHHF9JNfeiC-111" value="&lt;span style=&quot;text-align: left;&quot;&gt;TurboPay&lt;/span&gt;" style="html=1;outlineConnect=0;whiteSpace=wrap;fillColor=#99ffff;shape=mxgraph.archimate3.application;appType=serv;archiType=square;movable=1;resizable=1;rotatable=1;deletable=1;editable=1;locked=0;connectable=1;container=0;" vertex="1" parent="Cwkt_I89dFHHF9JNfeiC-1">
          <mxGeometry x="4110" y="140" width="150" height="80" as="geometry" />
        </mxCell>
        <mxCell id="Cwkt_I89dFHHF9JNfeiC-112" value="&lt;span style=&quot;text-align: left;&quot;&gt;FastMoney&lt;/span&gt;" style="html=1;outlineConnect=0;whiteSpace=wrap;fillColor=#99ffff;shape=mxgraph.archimate3.application;appType=serv;archiType=square;movable=1;resizable=1;rotatable=1;deletable=1;editable=1;locked=0;connectable=1;container=0;" vertex="1" parent="Cwkt_I89dFHHF9JNfeiC-1">
          <mxGeometry x="4325" y="140" width="150" height="80" as="geometry" />
        </mxCell>
        <mxCell id="Cwkt_I89dFHHF9JNfeiC-113" value="&lt;span style=&quot;text-align: left;&quot;&gt;Яндекс.Pay&lt;/span&gt;" style="html=1;outlineConnect=0;whiteSpace=wrap;fillColor=#99ffff;shape=mxgraph.archimate3.application;appType=serv;archiType=square;movable=1;resizable=1;rotatable=1;deletable=1;editable=1;locked=0;connectable=1;container=0;" vertex="1" parent="Cwkt_I89dFHHF9JNfeiC-1">
          <mxGeometry x="4540" y="140" width="150" height="80" as="geometry" />
        </mxCell>
        <mxCell id="Cwkt_I89dFHHF9JNfeiC-114" style="edgeStyle=orthogonalEdgeStyle;rounded=0;orthogonalLoop=1;jettySize=auto;html=1;entryX=0.5;entryY=1;entryDx=0;entryDy=0;entryPerimeter=0;movable=1;resizable=1;rotatable=1;deletable=1;editable=1;locked=0;connectable=1;" edge="1" parent="Cwkt_I89dFHHF9JNfeiC-1" source="Cwkt_I89dFHHF9JNfeiC-3" target="Cwkt_I89dFHHF9JNfeiC-111">
          <mxGeometry relative="1" as="geometry" />
        </mxCell>
        <mxCell id="Cwkt_I89dFHHF9JNfeiC-115" style="edgeStyle=orthogonalEdgeStyle;rounded=0;orthogonalLoop=1;jettySize=auto;html=1;entryX=0.5;entryY=1;entryDx=0;entryDy=0;entryPerimeter=0;movable=1;resizable=1;rotatable=1;deletable=1;editable=1;locked=0;connectable=1;" edge="1" parent="Cwkt_I89dFHHF9JNfeiC-1" source="Cwkt_I89dFHHF9JNfeiC-3" target="Cwkt_I89dFHHF9JNfeiC-112">
          <mxGeometry relative="1" as="geometry" />
        </mxCell>
        <mxCell id="Cwkt_I89dFHHF9JNfeiC-116" style="edgeStyle=orthogonalEdgeStyle;rounded=0;orthogonalLoop=1;jettySize=auto;html=1;entryX=0.5;entryY=1;entryDx=0;entryDy=0;entryPerimeter=0;movable=1;resizable=1;rotatable=1;deletable=1;editable=1;locked=0;connectable=1;" edge="1" parent="Cwkt_I89dFHHF9JNfeiC-1" source="Cwkt_I89dFHHF9JNfeiC-3" target="Cwkt_I89dFHHF9JNfeiC-113">
          <mxGeometry relative="1" as="geometry" />
        </mxCell>
        <mxCell id="Cwkt_I89dFHHF9JNfeiC-117" value="&lt;table cellpadding=&quot;0&quot; cellspacing=&quot;0&quot; style=&quot;font-size:1em;width:100%;height:100%;&quot;&gt;&lt;tbody&gt;&lt;tr style=&quot;height:20px;&quot;&gt;&lt;td align=&quot;center&quot;&gt;&lt;span style=&quot;text-align: -webkit-left;&quot;&gt;Транзакция&lt;/span&gt;&lt;/td&gt;&lt;/tr&gt;&lt;tr&gt;&lt;td align=&quot;left&quot; valign=&quot;top&quot; style=&quot;padding:4px;&quot;&gt;ID&lt;br&gt;Статус&lt;br&gt;&lt;/td&gt;&lt;/tr&gt;&lt;/tbody&gt;&lt;/table&gt;" style="html=1;outlineConnect=0;whiteSpace=wrap;fillColor=#99ffff;shape=mxgraph.archimate3.businessObject;overflow=fill;movable=1;resizable=1;rotatable=1;deletable=1;editable=1;locked=0;connectable=1;container=0;" vertex="1" parent="Cwkt_I89dFHHF9JNfeiC-1">
          <mxGeometry x="4335" y="630" width="130" height="60" as="geometry" />
        </mxCell>
        <mxCell id="Cwkt_I89dFHHF9JNfeiC-118" value="База данных" style="html=1;outlineConnect=0;whiteSpace=wrap;fillColor=#AFFFAF;shape=mxgraph.archimate3.application;appType=sysSw;archiType=square;align=left;verticalAlign=top;strokeColor=#000000;movable=1;resizable=1;rotatable=1;deletable=1;editable=1;locked=0;connectable=1;container=0;" vertex="1" parent="Cwkt_I89dFHHF9JNfeiC-1">
          <mxGeometry x="4180" y="730" width="440" height="260" as="geometry" />
        </mxCell>
        <mxCell id="Cwkt_I89dFHHF9JNfeiC-119" value="&lt;span style=&quot;font-family: &amp;quot;Times New Roman&amp;quot;; font-size: 14px; text-align: start; text-indent: -13px;&quot;&gt;Таблица&lt;/span&gt;&lt;div&gt;&lt;span style=&quot;font-family: &amp;quot;Times New Roman&amp;quot;; font-size: 14px; text-align: start; text-indent: -13px;&quot;&gt;Транзакций&lt;/span&gt;&lt;/div&gt;" style="html=1;outlineConnect=0;whiteSpace=wrap;fillColor=#AFFFAF;shape=mxgraph.archimate3.application;appType=artifact;archiType=square;fontColor=default;labelBackgroundColor=none;strokeColor=#000000;movable=1;resizable=1;rotatable=1;deletable=1;editable=1;locked=0;connectable=1;container=0;" vertex="1" parent="Cwkt_I89dFHHF9JNfeiC-1">
          <mxGeometry x="4325" y="750" width="150" height="75" as="geometry" />
        </mxCell>
        <mxCell id="Cwkt_I89dFHHF9JNfeiC-120" value="&lt;span style=&quot;text-align: -webkit-left;&quot;&gt;[Транзакция.Статус]&lt;/span&gt;" style="html=1;outlineConnect=0;whiteSpace=wrap;fillColor=#AFFFAF;shape=note;size=14;movable=1;resizable=1;rotatable=1;deletable=1;editable=1;locked=0;connectable=1;container=0;" vertex="1" parent="Cwkt_I89dFHHF9JNfeiC-1">
          <mxGeometry x="4325" y="850" width="150" height="50" as="geometry" />
        </mxCell>
        <mxCell id="Cwkt_I89dFHHF9JNfeiC-121" style="edgeStyle=elbowEdgeStyle;rounded=0;orthogonalLoop=1;jettySize=auto;html=1;entryX=0;entryY=0.5;entryDx=0;entryDy=0;entryPerimeter=0;exitX=0;exitY=0.5;exitDx=0;exitDy=0;exitPerimeter=0;movable=1;resizable=1;rotatable=1;deletable=1;editable=1;locked=0;connectable=1;" edge="1" parent="Cwkt_I89dFHHF9JNfeiC-1" source="Cwkt_I89dFHHF9JNfeiC-122" target="Cwkt_I89dFHHF9JNfeiC-119">
          <mxGeometry relative="1" as="geometry">
            <mxPoint x="4300" y="900" as="sourcePoint" />
            <mxPoint x="4300" y="813" as="targetPoint" />
            <Array as="points">
              <mxPoint x="4310" y="840" />
            </Array>
          </mxGeometry>
        </mxCell>
        <mxCell id="Cwkt_I89dFHHF9JNfeiC-122" value="&lt;span style=&quot;text-align: -webkit-left;&quot;&gt;[Транзакция.ID]&lt;/span&gt;" style="html=1;outlineConnect=0;whiteSpace=wrap;fillColor=#AFFFAF;shape=note;size=14;movable=1;resizable=1;rotatable=1;deletable=1;editable=1;locked=0;connectable=1;container=0;" vertex="1" parent="Cwkt_I89dFHHF9JNfeiC-1">
          <mxGeometry x="4325" y="920" width="150" height="50" as="geometry" />
        </mxCell>
        <mxCell id="Cwkt_I89dFHHF9JNfeiC-123" style="edgeStyle=elbowEdgeStyle;rounded=0;orthogonalLoop=1;jettySize=auto;html=1;entryX=0;entryY=0.5;entryDx=0;entryDy=0;entryPerimeter=0;exitX=0;exitY=0.5;exitDx=0;exitDy=0;exitPerimeter=0;movable=1;resizable=1;rotatable=1;deletable=1;editable=1;locked=0;connectable=1;" edge="1" parent="Cwkt_I89dFHHF9JNfeiC-1" source="Cwkt_I89dFHHF9JNfeiC-120" target="Cwkt_I89dFHHF9JNfeiC-119">
          <mxGeometry relative="1" as="geometry">
            <mxPoint x="4300" y="870" as="sourcePoint" />
            <mxPoint x="4300" y="783" as="targetPoint" />
            <Array as="points">
              <mxPoint x="4310" y="830" />
            </Array>
          </mxGeometry>
        </mxCell>
        <mxCell id="Cwkt_I89dFHHF9JNfeiC-124" style="edgeStyle=orthogonalEdgeStyle;rounded=0;orthogonalLoop=1;jettySize=auto;html=1;entryX=0.5;entryY=0;entryDx=0;entryDy=0;entryPerimeter=0;movable=1;resizable=1;rotatable=1;deletable=1;editable=1;locked=0;connectable=1;" edge="1" parent="Cwkt_I89dFHHF9JNfeiC-1" source="Cwkt_I89dFHHF9JNfeiC-117" target="Cwkt_I89dFHHF9JNfeiC-119">
          <mxGeometry relative="1" as="geometry" />
        </mxCell>
        <mxCell id="Cwkt_I89dFHHF9JNfeiC-125" style="edgeStyle=orthogonalEdgeStyle;rounded=0;orthogonalLoop=1;jettySize=auto;html=1;entryX=0.5;entryY=0;entryDx=0;entryDy=0;entryPerimeter=0;movable=1;resizable=1;rotatable=1;deletable=1;editable=1;locked=0;connectable=1;" edge="1" parent="Cwkt_I89dFHHF9JNfeiC-1" source="Cwkt_I89dFHHF9JNfeiC-3" target="Cwkt_I89dFHHF9JNfeiC-117">
          <mxGeometry relative="1" as="geometry" />
        </mxCell>
        <mxCell id="5g7xQn6lhLNjcegrg2FY-5" value="" style="edgeStyle=elbowEdgeStyle;html=1;endArrow=open;elbow=vertical;endFill=0;dashed=1;dashPattern=1 4;rounded=0;entryX=0.5;entryY=0;entryDx=0;entryDy=0;entryPerimeter=0;exitX=0.5;exitY=1;exitDx=0;exitDy=0;exitPerimeter=0;" edge="1" parent="Cwkt_I89dFHHF9JNfeiC-1" source="958O7Rn043K1TKB3Eg0P-0" target="5g7xQn6lhLNjcegrg2FY-0">
          <mxGeometry width="160" relative="1" as="geometry">
            <mxPoint x="3230" y="1690" as="sourcePoint" />
            <mxPoint x="3390" y="1690" as="targetPoint" />
          </mxGeometry>
        </mxCell>
        <mxCell id="5g7xQn6lhLNjcegrg2FY-16" value="" style="edgeStyle=elbowEdgeStyle;html=1;endArrow=open;elbow=vertical;endFill=0;dashed=1;dashPattern=1 4;rounded=0;entryX=0.5;entryY=0;entryDx=0;entryDy=0;entryPerimeter=0;exitX=0.5;exitY=1;exitDx=0;exitDy=0;exitPerimeter=0;" edge="1" parent="Cwkt_I89dFHHF9JNfeiC-1" source="20xxNQtNDSxM4y85c0yb-3" target="5g7xQn6lhLNjcegrg2FY-9">
          <mxGeometry width="160" relative="1" as="geometry">
            <mxPoint x="1665" y="1300" as="sourcePoint" />
            <mxPoint x="1665" y="1980" as="targetPoint" />
            <Array as="points">
              <mxPoint x="730" y="1650" />
            </Array>
          </mxGeometry>
        </mxCell>
        <mxCell id="5g7xQn6lhLNjcegrg2FY-20" value="" style="edgeStyle=elbowEdgeStyle;html=1;endArrow=open;elbow=vertical;endFill=0;dashed=1;dashPattern=1 4;rounded=0;entryX=0.5;entryY=0;entryDx=0;entryDy=0;entryPerimeter=0;exitX=0.5;exitY=1;exitDx=0;exitDy=0;exitPerimeter=0;" edge="1" parent="Cwkt_I89dFHHF9JNfeiC-1" source="20xxNQtNDSxM4y85c0yb-19" target="5g7xQn6lhLNjcegrg2FY-17">
          <mxGeometry width="160" relative="1" as="geometry">
            <mxPoint x="3120" y="1840" as="sourcePoint" />
            <mxPoint x="3120" y="2010" as="targetPoint" />
          </mxGeometry>
        </mxCell>
        <mxCell id="5g7xQn6lhLNjcegrg2FY-24" value="" style="edgeStyle=elbowEdgeStyle;html=1;endArrow=open;elbow=vertical;endFill=0;dashed=1;dashPattern=1 4;rounded=0;entryX=0.5;entryY=0;entryDx=0;entryDy=0;entryPerimeter=0;exitX=0.5;exitY=1;exitDx=0;exitDy=0;exitPerimeter=0;" edge="1" parent="Cwkt_I89dFHHF9JNfeiC-1" source="958O7Rn043K1TKB3Eg0P-3" target="5g7xQn6lhLNjcegrg2FY-22">
          <mxGeometry width="160" relative="1" as="geometry">
            <mxPoint x="1695" y="1800" as="sourcePoint" />
            <mxPoint x="1695" y="1970" as="targetPoint" />
          </mxGeometry>
        </mxCell>
        <mxCell id="5g7xQn6lhLNjcegrg2FY-25" value="" style="group" vertex="1" connectable="0" parent="Cwkt_I89dFHHF9JNfeiC-1">
          <mxGeometry x="3280" y="1850" width="170" height="220" as="geometry" />
        </mxCell>
        <mxCell id="5g7xQn6lhLNjcegrg2FY-0" value="&lt;span style=&quot;font-family: &amp;quot;Times New Roman&amp;quot;; font-size: 14px; text-align: start; text-indent: -13px;&quot;&gt;БД&lt;/span&gt;&lt;div&gt;&lt;span style=&quot;font-family: &amp;quot;Times New Roman&amp;quot;; font-size: 14px; text-align: start; text-indent: -13px;&quot;&gt;Транзакций&lt;/span&gt;&lt;/div&gt;" style="html=1;outlineConnect=0;whiteSpace=wrap;fillColor=#AFFFAF;shape=mxgraph.archimate3.application;appType=artifact;archiType=square;fontColor=default;labelBackgroundColor=none;strokeColor=#FF0000;" vertex="1" parent="5g7xQn6lhLNjcegrg2FY-25">
          <mxGeometry x="20" width="150" height="75" as="geometry" />
        </mxCell>
        <mxCell id="5g7xQn6lhLNjcegrg2FY-1" value="&lt;span style=&quot;font-family: &amp;quot;Times New Roman&amp;quot;; font-size: 14px;&quot;&gt;[Транзакция.ID]&lt;/span&gt;" style="html=1;outlineConnect=0;whiteSpace=wrap;fillColor=#AFFFAF;shape=note;size=14;" vertex="1" parent="5g7xQn6lhLNjcegrg2FY-25">
          <mxGeometry x="20" y="100" width="150" height="50" as="geometry" />
        </mxCell>
        <mxCell id="5g7xQn6lhLNjcegrg2FY-2" value="&lt;span style=&quot;font-family: &amp;quot;Times New Roman&amp;quot;; font-size: 14px;&quot;&gt;[Транзакция.Статус]&lt;/span&gt;" style="html=1;outlineConnect=0;whiteSpace=wrap;fillColor=#AFFFAF;shape=note;size=14;" vertex="1" parent="5g7xQn6lhLNjcegrg2FY-25">
          <mxGeometry x="20" y="170" width="150" height="50" as="geometry" />
        </mxCell>
        <mxCell id="5g7xQn6lhLNjcegrg2FY-3" style="edgeStyle=elbowEdgeStyle;rounded=0;orthogonalLoop=1;jettySize=auto;html=1;entryX=0;entryY=0.5;entryDx=0;entryDy=0;entryPerimeter=0;exitX=0;exitY=0.5;exitDx=0;exitDy=0;exitPerimeter=0;" edge="1" parent="5g7xQn6lhLNjcegrg2FY-25" source="5g7xQn6lhLNjcegrg2FY-1" target="5g7xQn6lhLNjcegrg2FY-0">
          <mxGeometry relative="1" as="geometry">
            <mxPoint x="20" y="151" as="sourcePoint" />
            <mxPoint x="20" y="64" as="targetPoint" />
            <Array as="points">
              <mxPoint y="116" />
            </Array>
          </mxGeometry>
        </mxCell>
        <mxCell id="5g7xQn6lhLNjcegrg2FY-4" style="edgeStyle=elbowEdgeStyle;rounded=0;orthogonalLoop=1;jettySize=auto;html=1;entryX=0;entryY=0.5;entryDx=0;entryDy=0;entryPerimeter=0;exitX=0;exitY=0.5;exitDx=0;exitDy=0;exitPerimeter=0;" edge="1" parent="5g7xQn6lhLNjcegrg2FY-25" source="5g7xQn6lhLNjcegrg2FY-2" target="5g7xQn6lhLNjcegrg2FY-0">
          <mxGeometry relative="1" as="geometry">
            <mxPoint x="20" y="188.5" as="sourcePoint" />
            <mxPoint x="20" y="101.5" as="targetPoint" />
            <Array as="points">
              <mxPoint y="153.5" />
            </Array>
          </mxGeometry>
        </mxCell>
        <mxCell id="5g7xQn6lhLNjcegrg2FY-26" value="" style="group" vertex="1" connectable="0" parent="Cwkt_I89dFHHF9JNfeiC-1">
          <mxGeometry x="540" y="1850" width="170" height="290" as="geometry" />
        </mxCell>
        <mxCell id="5g7xQn6lhLNjcegrg2FY-9" value="&lt;span style=&quot;font-family: &amp;quot;Times New Roman&amp;quot;; font-size: 14px; text-indent: -13px;&quot;&gt;БД&lt;/span&gt;&lt;div&gt;&lt;span style=&quot;font-family: &amp;quot;Times New Roman&amp;quot;; font-size: 14px; text-indent: -13px;&quot;&gt;Заявок&lt;/span&gt;&lt;/div&gt;" style="html=1;outlineConnect=0;whiteSpace=wrap;fillColor=#AFFFAF;shape=mxgraph.archimate3.application;appType=artifact;archiType=square;fontColor=default;labelBackgroundColor=none;strokeColor=#FF0000;align=center;verticalAlign=middle;" vertex="1" parent="5g7xQn6lhLNjcegrg2FY-26">
          <mxGeometry x="20" width="150" height="75" as="geometry" />
        </mxCell>
        <mxCell id="5g7xQn6lhLNjcegrg2FY-10" value="&lt;span style=&quot;font-family: &amp;quot;Times New Roman&amp;quot;; font-size: 14px; text-align: start; text-indent: -13px;&quot;&gt;Заявка на регистрацию&lt;/span&gt;" style="html=1;outlineConnect=0;whiteSpace=wrap;fillColor=#AFFFAF;shape=note;size=14;" vertex="1" parent="5g7xQn6lhLNjcegrg2FY-26">
          <mxGeometry x="20" y="170" width="150" height="50" as="geometry" />
        </mxCell>
        <mxCell id="5g7xQn6lhLNjcegrg2FY-11" value="&lt;span style=&quot;font-family: &amp;quot;Times New Roman&amp;quot;; font-size: 14px; text-align: start; text-indent: -13px;&quot;&gt;Заявка на аукцион.ID&lt;/span&gt;" style="html=1;outlineConnect=0;whiteSpace=wrap;fillColor=#AFFFAF;shape=note;size=14;" vertex="1" parent="5g7xQn6lhLNjcegrg2FY-26">
          <mxGeometry x="20" y="240" width="150" height="50" as="geometry" />
        </mxCell>
        <mxCell id="5g7xQn6lhLNjcegrg2FY-12" value="&lt;span style=&quot;font-family: &amp;quot;Times New Roman&amp;quot;; font-size: 14px; text-align: start; text-indent: -13px;&quot;&gt;Заявка на аппеляцию.ID&lt;/span&gt;" style="html=1;outlineConnect=0;whiteSpace=wrap;fillColor=#AFFFAF;shape=note;size=14;strokeColor=#FF0000;" vertex="1" parent="5g7xQn6lhLNjcegrg2FY-26">
          <mxGeometry x="20" y="100" width="150" height="50" as="geometry" />
        </mxCell>
        <mxCell id="5g7xQn6lhLNjcegrg2FY-13" style="edgeStyle=elbowEdgeStyle;rounded=0;orthogonalLoop=1;jettySize=auto;html=1;entryX=0;entryY=0.5;entryDx=0;entryDy=0;entryPerimeter=0;exitX=0;exitY=0.5;exitDx=0;exitDy=0;exitPerimeter=0;" edge="1" parent="5g7xQn6lhLNjcegrg2FY-26" source="5g7xQn6lhLNjcegrg2FY-12" target="5g7xQn6lhLNjcegrg2FY-9">
          <mxGeometry relative="1" as="geometry">
            <mxPoint x="20" y="160" as="sourcePoint" />
            <mxPoint x="20" y="63" as="targetPoint" />
            <Array as="points">
              <mxPoint y="131" />
            </Array>
          </mxGeometry>
        </mxCell>
        <mxCell id="5g7xQn6lhLNjcegrg2FY-14" style="edgeStyle=elbowEdgeStyle;rounded=0;orthogonalLoop=1;jettySize=auto;html=1;entryX=0;entryY=0.5;entryDx=0;entryDy=0;entryPerimeter=0;exitX=0;exitY=0.5;exitDx=0;exitDy=0;exitPerimeter=0;" edge="1" parent="5g7xQn6lhLNjcegrg2FY-26" source="5g7xQn6lhLNjcegrg2FY-10" target="5g7xQn6lhLNjcegrg2FY-9">
          <mxGeometry relative="1" as="geometry">
            <mxPoint x="20" y="170" as="sourcePoint" />
            <mxPoint x="20" y="50" as="targetPoint" />
            <Array as="points">
              <mxPoint y="143" />
            </Array>
          </mxGeometry>
        </mxCell>
        <mxCell id="5g7xQn6lhLNjcegrg2FY-15" style="edgeStyle=elbowEdgeStyle;rounded=0;orthogonalLoop=1;jettySize=auto;html=1;entryX=0;entryY=0.5;entryDx=0;entryDy=0;entryPerimeter=0;exitX=0;exitY=0.5;exitDx=0;exitDy=0;exitPerimeter=0;" edge="1" parent="5g7xQn6lhLNjcegrg2FY-26" source="5g7xQn6lhLNjcegrg2FY-11" target="5g7xQn6lhLNjcegrg2FY-9">
          <mxGeometry relative="1" as="geometry">
            <mxPoint x="20" y="235" as="sourcePoint" />
            <mxPoint x="20" y="48" as="targetPoint" />
            <Array as="points">
              <mxPoint y="153" />
            </Array>
          </mxGeometry>
        </mxCell>
        <mxCell id="5g7xQn6lhLNjcegrg2FY-27" value="" style="group" vertex="1" connectable="0" parent="Cwkt_I89dFHHF9JNfeiC-1">
          <mxGeometry x="2990" y="1850" width="170" height="150" as="geometry" />
        </mxCell>
        <mxCell id="5g7xQn6lhLNjcegrg2FY-17" value="&lt;span style=&quot;font-family: &amp;quot;Times New Roman&amp;quot;; font-size: 14px; text-indent: -13px;&quot;&gt;БД&lt;/span&gt;&lt;div&gt;&lt;span style=&quot;font-family: &amp;quot;Times New Roman&amp;quot;; font-size: 14px; text-indent: -13px;&quot;&gt;Заказов&lt;/span&gt;&lt;/div&gt;" style="html=1;outlineConnect=0;whiteSpace=wrap;fillColor=#AFFFAF;shape=mxgraph.archimate3.application;appType=artifact;archiType=square;fontColor=default;labelBackgroundColor=none;strokeColor=#FF0000;align=center;verticalAlign=middle;" vertex="1" parent="5g7xQn6lhLNjcegrg2FY-27">
          <mxGeometry x="20" width="150" height="75" as="geometry" />
        </mxCell>
        <mxCell id="5g7xQn6lhLNjcegrg2FY-18" value="&lt;span style=&quot;font-family: &amp;quot;Times New Roman&amp;quot;; font-size: 14px; text-align: start; text-indent: -13px;&quot;&gt;Заказ.ID&lt;/span&gt;" style="html=1;outlineConnect=0;whiteSpace=wrap;fillColor=#AFFFAF;shape=note;size=14;strokeColor=#FF0000;" vertex="1" parent="5g7xQn6lhLNjcegrg2FY-27">
          <mxGeometry x="20" y="100" width="150" height="50" as="geometry" />
        </mxCell>
        <mxCell id="5g7xQn6lhLNjcegrg2FY-19" style="edgeStyle=elbowEdgeStyle;rounded=0;orthogonalLoop=1;jettySize=auto;html=1;entryX=0;entryY=0.5;entryDx=0;entryDy=0;entryPerimeter=0;exitX=0;exitY=0.5;exitDx=0;exitDy=0;exitPerimeter=0;" edge="1" parent="5g7xQn6lhLNjcegrg2FY-27" source="5g7xQn6lhLNjcegrg2FY-18" target="5g7xQn6lhLNjcegrg2FY-17">
          <mxGeometry relative="1" as="geometry">
            <mxPoint x="20" y="125" as="sourcePoint" />
            <mxPoint x="20" y="38" as="targetPoint" />
            <Array as="points">
              <mxPoint y="131" />
            </Array>
          </mxGeometry>
        </mxCell>
        <mxCell id="5g7xQn6lhLNjcegrg2FY-28" value="" style="group" vertex="1" connectable="0" parent="Cwkt_I89dFHHF9JNfeiC-1">
          <mxGeometry x="1190" y="1850" width="170" height="150" as="geometry" />
        </mxCell>
        <mxCell id="5g7xQn6lhLNjcegrg2FY-21" value="&lt;span style=&quot;font-family: &amp;quot;Times New Roman&amp;quot;; font-size: 14px; text-align: start; text-indent: -13px;&quot;&gt;Аукцион.ID&lt;/span&gt;" style="html=1;outlineConnect=0;whiteSpace=wrap;fillColor=#AFFFAF;shape=note;size=14;strokeColor=#FF0000;" vertex="1" parent="5g7xQn6lhLNjcegrg2FY-28">
          <mxGeometry x="20" y="100" width="150" height="50" as="geometry" />
        </mxCell>
        <mxCell id="5g7xQn6lhLNjcegrg2FY-22" value="&lt;span style=&quot;font-family: &amp;quot;Times New Roman&amp;quot;; font-size: 14px; text-indent: -13px;&quot;&gt;БД&lt;/span&gt;&lt;div&gt;&lt;span style=&quot;font-family: &amp;quot;Times New Roman&amp;quot;; font-size: 14px; text-indent: -13px;&quot;&gt;Аукционов&lt;/span&gt;&lt;/div&gt;" style="html=1;outlineConnect=0;whiteSpace=wrap;fillColor=#AFFFAF;shape=mxgraph.archimate3.application;appType=artifact;archiType=square;fontColor=default;labelBackgroundColor=none;strokeColor=#FF0000;align=center;verticalAlign=middle;" vertex="1" parent="5g7xQn6lhLNjcegrg2FY-28">
          <mxGeometry x="20" width="150" height="75" as="geometry" />
        </mxCell>
        <mxCell id="5g7xQn6lhLNjcegrg2FY-23" style="edgeStyle=elbowEdgeStyle;rounded=0;orthogonalLoop=1;jettySize=auto;html=1;entryX=0;entryY=0.5;entryDx=0;entryDy=0;entryPerimeter=0;exitX=0;exitY=0.5;exitDx=0;exitDy=0;exitPerimeter=0;" edge="1" source="5g7xQn6lhLNjcegrg2FY-21" target="5g7xQn6lhLNjcegrg2FY-22" parent="5g7xQn6lhLNjcegrg2FY-28">
          <mxGeometry relative="1" as="geometry">
            <mxPoint x="20" y="125" as="sourcePoint" />
            <mxPoint x="20" y="38" as="targetPoint" />
            <Array as="points">
              <mxPoint y="131" />
            </Array>
          </mxGeometry>
        </mxCell>
        <mxCell id="5g7xQn6lhLNjcegrg2FY-29" value="" style="group" vertex="1" connectable="0" parent="Cwkt_I89dFHHF9JNfeiC-1">
          <mxGeometry x="2680" y="1850" width="170" height="300" as="geometry" />
        </mxCell>
        <mxCell id="Cwkt_I89dFHHF9JNfeiC-73" value="&lt;span style=&quot;font-family: &amp;quot;Times New Roman&amp;quot;; font-size: 14px; text-align: start; text-indent: -13px;&quot;&gt;Услуга.ID&lt;/span&gt;" style="html=1;outlineConnect=0;whiteSpace=wrap;fillColor=#AFFFAF;shape=note;size=14;" vertex="1" parent="5g7xQn6lhLNjcegrg2FY-29">
          <mxGeometry x="20" y="100" width="150" height="50" as="geometry" />
        </mxCell>
        <mxCell id="Cwkt_I89dFHHF9JNfeiC-74" value="&lt;span style=&quot;font-family: &amp;quot;Times New Roman&amp;quot;; font-size: 14px; text-align: start; text-indent: -13px;&quot;&gt;Услуга.Название&lt;/span&gt;" style="html=1;outlineConnect=0;whiteSpace=wrap;fillColor=#AFFFAF;shape=note;size=14;" vertex="1" parent="5g7xQn6lhLNjcegrg2FY-29">
          <mxGeometry x="20" y="172.5" width="150" height="50" as="geometry" />
        </mxCell>
        <mxCell id="Cwkt_I89dFHHF9JNfeiC-83" value="&lt;span style=&quot;font-family: &amp;quot;Times New Roman&amp;quot;; font-size: 14px; text-align: start; text-indent: -13px;&quot;&gt;Услуга. Описание&lt;/span&gt;" style="html=1;outlineConnect=0;whiteSpace=wrap;fillColor=#AFFFAF;shape=note;size=14;" vertex="1" parent="5g7xQn6lhLNjcegrg2FY-29">
          <mxGeometry x="20" y="250" width="150" height="50" as="geometry" />
        </mxCell>
        <mxCell id="Cwkt_I89dFHHF9JNfeiC-99" value="&lt;span style=&quot;font-family: &amp;quot;Times New Roman&amp;quot;; font-size: 14px; text-align: start; text-indent: -13px;&quot;&gt;БД&lt;/span&gt;&lt;div&gt;&lt;span style=&quot;font-family: &amp;quot;Times New Roman&amp;quot;; font-size: 14px; text-align: start; text-indent: -13px;&quot;&gt;Услуги&lt;/span&gt;&lt;/div&gt;" style="html=1;outlineConnect=0;whiteSpace=wrap;fillColor=#AFFFAF;shape=mxgraph.archimate3.application;appType=artifact;archiType=square;fontColor=default;labelBackgroundColor=none;strokeColor=#FF0000;" vertex="1" parent="5g7xQn6lhLNjcegrg2FY-29">
          <mxGeometry x="20" width="150" height="75" as="geometry" />
        </mxCell>
        <mxCell id="Cwkt_I89dFHHF9JNfeiC-100" style="edgeStyle=elbowEdgeStyle;rounded=0;orthogonalLoop=1;jettySize=auto;html=1;entryX=0;entryY=0.5;entryDx=0;entryDy=0;entryPerimeter=0;exitX=0;exitY=0.5;exitDx=0;exitDy=0;exitPerimeter=0;" edge="1" parent="5g7xQn6lhLNjcegrg2FY-29" source="Cwkt_I89dFHHF9JNfeiC-73" target="Cwkt_I89dFHHF9JNfeiC-99">
          <mxGeometry relative="1" as="geometry">
            <mxPoint y="148.5" as="sourcePoint" />
            <mxPoint y="48.5" as="targetPoint" />
            <Array as="points">
              <mxPoint y="90" />
            </Array>
          </mxGeometry>
        </mxCell>
        <mxCell id="Cwkt_I89dFHHF9JNfeiC-101" style="edgeStyle=elbowEdgeStyle;rounded=0;orthogonalLoop=1;jettySize=auto;html=1;entryX=0;entryY=0.5;entryDx=0;entryDy=0;entryPerimeter=0;exitX=0;exitY=0.5;exitDx=0;exitDy=0;exitPerimeter=0;" edge="1" parent="5g7xQn6lhLNjcegrg2FY-29" source="Cwkt_I89dFHHF9JNfeiC-74" target="Cwkt_I89dFHHF9JNfeiC-99">
          <mxGeometry relative="1" as="geometry">
            <mxPoint x="10" y="200.5" as="sourcePoint" />
            <mxPoint x="10" y="100.5" as="targetPoint" />
            <Array as="points">
              <mxPoint y="140" />
            </Array>
          </mxGeometry>
        </mxCell>
        <mxCell id="Cwkt_I89dFHHF9JNfeiC-102" style="edgeStyle=elbowEdgeStyle;rounded=0;orthogonalLoop=1;jettySize=auto;html=1;entryX=0;entryY=0.5;entryDx=0;entryDy=0;entryPerimeter=0;exitX=0;exitY=0.5;exitDx=0;exitDy=0;exitPerimeter=0;" edge="1" parent="5g7xQn6lhLNjcegrg2FY-29" source="Cwkt_I89dFHHF9JNfeiC-83" target="Cwkt_I89dFHHF9JNfeiC-99">
          <mxGeometry relative="1" as="geometry">
            <mxPoint x="20" y="310.5" as="sourcePoint" />
            <mxPoint x="20" y="110.5" as="targetPoint" />
            <Array as="points">
              <mxPoint y="212.5" />
            </Array>
          </mxGeometry>
        </mxCell>
        <mxCell id="5g7xQn6lhLNjcegrg2FY-30" value="" style="edgeStyle=elbowEdgeStyle;html=1;endArrow=open;elbow=vertical;endFill=0;dashed=1;dashPattern=1 4;rounded=0;entryX=0.5;entryY=0;entryDx=0;entryDy=0;entryPerimeter=0;exitX=0.5;exitY=1;exitDx=0;exitDy=0;exitPerimeter=0;" edge="1" parent="Cwkt_I89dFHHF9JNfeiC-1" source="0Vjbv6TmKK2vR3b6kO95-1" target="Cwkt_I89dFHHF9JNfeiC-99">
          <mxGeometry width="160" relative="1" as="geometry">
            <mxPoint x="2975" y="1530" as="sourcePoint" />
            <mxPoint x="2975" y="1970" as="targetPoint" />
          </mxGeometry>
        </mxCell>
        <mxCell id="5g7xQn6lhLNjcegrg2FY-31" value="" style="group" vertex="1" connectable="0" parent="Cwkt_I89dFHHF9JNfeiC-1">
          <mxGeometry x="2400" y="1850" width="170" height="300" as="geometry" />
        </mxCell>
        <mxCell id="Cwkt_I89dFHHF9JNfeiC-80" value="&lt;span style=&quot;font-family: &amp;quot;Times New Roman&amp;quot;; font-size: 14px; text-align: start; text-indent: -13px;&quot;&gt;Товар.ID&lt;/span&gt;" style="html=1;outlineConnect=0;whiteSpace=wrap;fillColor=#AFFFAF;shape=note;size=14;" vertex="1" parent="5g7xQn6lhLNjcegrg2FY-31">
          <mxGeometry x="20" y="100" width="150" height="50" as="geometry" />
        </mxCell>
        <mxCell id="Cwkt_I89dFHHF9JNfeiC-81" value="&lt;span style=&quot;font-family: &amp;quot;Times New Roman&amp;quot;; font-size: 14px; text-align: start; text-indent: -13px;&quot;&gt;Товар.Описание&lt;/span&gt;" style="html=1;outlineConnect=0;whiteSpace=wrap;fillColor=#AFFFAF;shape=note;size=14;" vertex="1" parent="5g7xQn6lhLNjcegrg2FY-31">
          <mxGeometry x="20" y="250" width="150" height="50" as="geometry" />
        </mxCell>
        <mxCell id="Cwkt_I89dFHHF9JNfeiC-82" value="&lt;span style=&quot;font-family: &amp;quot;Times New Roman&amp;quot;; font-size: 14px; text-align: start; text-indent: -13px;&quot;&gt;Товар.Название&lt;/span&gt;" style="html=1;outlineConnect=0;whiteSpace=wrap;fillColor=#AFFFAF;shape=note;size=14;" vertex="1" parent="5g7xQn6lhLNjcegrg2FY-31">
          <mxGeometry x="20" y="172.5" width="150" height="50" as="geometry" />
        </mxCell>
        <mxCell id="Cwkt_I89dFHHF9JNfeiC-96" value="&lt;span style=&quot;font-family: &amp;quot;Times New Roman&amp;quot;; font-size: 14px; text-align: start; text-indent: -13px;&quot;&gt;БД&lt;/span&gt;&lt;div&gt;&lt;span style=&quot;font-family: &amp;quot;Times New Roman&amp;quot;; font-size: 14px; text-align: start; text-indent: -13px;&quot;&gt;Товары&lt;/span&gt;&lt;/div&gt;" style="html=1;outlineConnect=0;whiteSpace=wrap;fillColor=#AFFFAF;shape=mxgraph.archimate3.application;appType=artifact;archiType=square;fontColor=default;labelBackgroundColor=none;strokeColor=#FF0000;" vertex="1" parent="5g7xQn6lhLNjcegrg2FY-31">
          <mxGeometry x="20" width="150" height="75" as="geometry" />
        </mxCell>
        <mxCell id="Cwkt_I89dFHHF9JNfeiC-97" style="edgeStyle=elbowEdgeStyle;rounded=0;orthogonalLoop=1;jettySize=auto;html=1;entryX=0;entryY=0.5;entryDx=0;entryDy=0;entryPerimeter=0;exitX=0;exitY=0.5;exitDx=0;exitDy=0;exitPerimeter=0;" edge="1" parent="5g7xQn6lhLNjcegrg2FY-31" source="Cwkt_I89dFHHF9JNfeiC-80" target="Cwkt_I89dFHHF9JNfeiC-96">
          <mxGeometry relative="1" as="geometry">
            <mxPoint x="-50" y="130.5" as="sourcePoint" />
            <mxPoint x="-50" y="30.5" as="targetPoint" />
            <Array as="points">
              <mxPoint y="90" />
            </Array>
          </mxGeometry>
        </mxCell>
        <mxCell id="Cwkt_I89dFHHF9JNfeiC-98" style="edgeStyle=elbowEdgeStyle;rounded=0;orthogonalLoop=1;jettySize=auto;html=1;entryX=0;entryY=0.5;entryDx=0;entryDy=0;entryPerimeter=0;exitX=0;exitY=0.5;exitDx=0;exitDy=0;exitPerimeter=0;" edge="1" parent="5g7xQn6lhLNjcegrg2FY-31" source="Cwkt_I89dFHHF9JNfeiC-82" target="Cwkt_I89dFHHF9JNfeiC-96">
          <mxGeometry relative="1" as="geometry">
            <mxPoint x="-10" y="220.5" as="sourcePoint" />
            <mxPoint x="-10" y="120.5" as="targetPoint" />
            <Array as="points">
              <mxPoint y="140" />
            </Array>
          </mxGeometry>
        </mxCell>
        <mxCell id="Cwkt_I89dFHHF9JNfeiC-103" style="edgeStyle=elbowEdgeStyle;rounded=0;orthogonalLoop=1;jettySize=auto;html=1;entryX=0;entryY=0.5;entryDx=0;entryDy=0;entryPerimeter=0;exitX=0;exitY=0.5;exitDx=0;exitDy=0;exitPerimeter=0;" edge="1" parent="5g7xQn6lhLNjcegrg2FY-31" source="Cwkt_I89dFHHF9JNfeiC-81" target="Cwkt_I89dFHHF9JNfeiC-96">
          <mxGeometry relative="1" as="geometry">
            <mxPoint x="10" y="360.5" as="sourcePoint" />
            <mxPoint x="10" y="60.5" as="targetPoint" />
            <Array as="points">
              <mxPoint y="190" />
            </Array>
          </mxGeometry>
        </mxCell>
        <mxCell id="5g7xQn6lhLNjcegrg2FY-32" value="" style="edgeStyle=elbowEdgeStyle;html=1;endArrow=open;elbow=vertical;endFill=0;dashed=1;dashPattern=1 4;rounded=0;entryX=0.5;entryY=0;entryDx=0;entryDy=0;entryPerimeter=0;exitX=0.5;exitY=1;exitDx=0;exitDy=0;exitPerimeter=0;" edge="1" parent="Cwkt_I89dFHHF9JNfeiC-1" source="0Vjbv6TmKK2vR3b6kO95-8" target="Cwkt_I89dFHHF9JNfeiC-96">
          <mxGeometry width="160" relative="1" as="geometry">
            <mxPoint x="2675" y="1531" as="sourcePoint" />
            <mxPoint x="2675" y="1970" as="targetPoint" />
          </mxGeometry>
        </mxCell>
        <mxCell id="5g7xQn6lhLNjcegrg2FY-33" value="" style="group" vertex="1" connectable="0" parent="Cwkt_I89dFHHF9JNfeiC-1">
          <mxGeometry x="910" y="1850" width="170" height="225" as="geometry" />
        </mxCell>
        <mxCell id="Cwkt_I89dFHHF9JNfeiC-70" value="&lt;span style=&quot;font-family: &amp;quot;Times New Roman&amp;quot;; font-size: 14px; text-align: start; text-indent: -13px;&quot;&gt;Торговая площадка.ID&lt;/span&gt;" style="html=1;outlineConnect=0;whiteSpace=wrap;fillColor=#AFFFAF;shape=note;size=14;" vertex="1" parent="5g7xQn6lhLNjcegrg2FY-33">
          <mxGeometry x="20" y="100" width="150" height="50" as="geometry" />
        </mxCell>
        <mxCell id="Cwkt_I89dFHHF9JNfeiC-71" value="&lt;span style=&quot;font-family: &amp;quot;Times New Roman&amp;quot;; font-size: 14px; text-align: start; text-indent: -13px;&quot;&gt;Торговая площадка.Наименование&lt;/span&gt;" style="html=1;outlineConnect=0;whiteSpace=wrap;fillColor=#AFFFAF;shape=note;size=14;" vertex="1" parent="5g7xQn6lhLNjcegrg2FY-33">
          <mxGeometry x="20" y="175" width="150" height="50" as="geometry" />
        </mxCell>
        <mxCell id="Cwkt_I89dFHHF9JNfeiC-104" value="&lt;span style=&quot;font-family: &amp;quot;Times New Roman&amp;quot;; font-size: 14px; text-align: start; text-indent: -13px;&quot;&gt;БД&lt;/span&gt;&lt;div&gt;&lt;span style=&quot;font-family: &amp;quot;Times New Roman&amp;quot;; font-size: 14px; text-align: start; text-indent: -13px;&quot;&gt;Торговые площадки&lt;/span&gt;&lt;/div&gt;" style="html=1;outlineConnect=0;whiteSpace=wrap;fillColor=#AFFFAF;shape=mxgraph.archimate3.application;appType=artifact;archiType=square;fontColor=default;labelBackgroundColor=none;strokeColor=#FF0000;" vertex="1" parent="5g7xQn6lhLNjcegrg2FY-33">
          <mxGeometry x="20" width="150" height="75" as="geometry" />
        </mxCell>
        <mxCell id="Cwkt_I89dFHHF9JNfeiC-105" style="edgeStyle=elbowEdgeStyle;rounded=0;orthogonalLoop=1;jettySize=auto;html=1;entryX=0;entryY=0.5;entryDx=0;entryDy=0;entryPerimeter=0;exitX=0;exitY=0.5;exitDx=0;exitDy=0;exitPerimeter=0;" edge="1" parent="5g7xQn6lhLNjcegrg2FY-33" source="Cwkt_I89dFHHF9JNfeiC-70" target="Cwkt_I89dFHHF9JNfeiC-104">
          <mxGeometry relative="1" as="geometry">
            <mxPoint x="-30" y="175.5" as="sourcePoint" />
            <mxPoint x="-30" y="75.5" as="targetPoint" />
            <Array as="points">
              <mxPoint y="80" />
            </Array>
          </mxGeometry>
        </mxCell>
        <mxCell id="Cwkt_I89dFHHF9JNfeiC-106" style="edgeStyle=elbowEdgeStyle;rounded=0;orthogonalLoop=1;jettySize=auto;html=1;entryX=0;entryY=0.5;entryDx=0;entryDy=0;entryPerimeter=0;exitX=0;exitY=0.5;exitDx=0;exitDy=0;exitPerimeter=0;" edge="1" parent="5g7xQn6lhLNjcegrg2FY-33" source="Cwkt_I89dFHHF9JNfeiC-71" target="Cwkt_I89dFHHF9JNfeiC-104">
          <mxGeometry relative="1" as="geometry">
            <mxPoint y="220.5" as="sourcePoint" />
            <mxPoint y="120.5" as="targetPoint" />
            <Array as="points">
              <mxPoint y="120" />
            </Array>
          </mxGeometry>
        </mxCell>
        <mxCell id="5g7xQn6lhLNjcegrg2FY-34" value="" style="edgeStyle=elbowEdgeStyle;html=1;endArrow=open;elbow=vertical;endFill=0;dashed=1;dashPattern=1 4;rounded=0;entryX=0.5;entryY=0;entryDx=0;entryDy=0;entryPerimeter=0;exitX=0.5;exitY=1;exitDx=0;exitDy=0;exitPerimeter=0;" edge="1" parent="Cwkt_I89dFHHF9JNfeiC-1" source="GUKaVtx0HizPZe3K6GCj-7" target="Cwkt_I89dFHHF9JNfeiC-104">
          <mxGeometry width="160" relative="1" as="geometry">
            <mxPoint x="2375" y="1531" as="sourcePoint" />
            <mxPoint x="2375" y="1970" as="targetPoint" />
          </mxGeometry>
        </mxCell>
        <mxCell id="5g7xQn6lhLNjcegrg2FY-35" value="" style="group" vertex="1" connectable="0" parent="Cwkt_I89dFHHF9JNfeiC-1">
          <mxGeometry x="1930" y="1850" width="170" height="800" as="geometry" />
        </mxCell>
        <mxCell id="Cwkt_I89dFHHF9JNfeiC-65" value="&lt;span style=&quot;font-family: &amp;quot;Times New Roman&amp;quot;; font-size: 14px; text-align: start; text-indent: -13px;&quot;&gt;Пользователь.Активен&lt;/span&gt;" style="html=1;outlineConnect=0;whiteSpace=wrap;fillColor=#AFFFAF;shape=note;size=14;" vertex="1" parent="5g7xQn6lhLNjcegrg2FY-35">
          <mxGeometry x="20" y="680" width="150" height="50" as="geometry" />
        </mxCell>
        <mxCell id="Cwkt_I89dFHHF9JNfeiC-66" value="&lt;span style=&quot;font-family: &amp;quot;Times New Roman&amp;quot;; font-size: 14px; text-align: start; text-indent: -13px;&quot;&gt;Пользователь.Роль&lt;/span&gt;" style="html=1;outlineConnect=0;whiteSpace=wrap;fillColor=#AFFFAF;shape=note;size=14;" vertex="1" parent="5g7xQn6lhLNjcegrg2FY-35">
          <mxGeometry x="20" y="750" width="150" height="50" as="geometry" />
        </mxCell>
        <mxCell id="Cwkt_I89dFHHF9JNfeiC-67" value="&lt;span style=&quot;font-family: &amp;quot;Times New Roman&amp;quot;; font-size: 14px; text-align: start; text-indent: -13px;&quot;&gt;Пользователь.ID&lt;/span&gt;" style="html=1;outlineConnect=0;whiteSpace=wrap;fillColor=#AFFFAF;shape=note;size=14;" vertex="1" parent="5g7xQn6lhLNjcegrg2FY-35">
          <mxGeometry x="20" y="100" width="150" height="50" as="geometry" />
        </mxCell>
        <mxCell id="Cwkt_I89dFHHF9JNfeiC-68" value="&lt;span style=&quot;font-family: &amp;quot;Times New Roman&amp;quot;; font-size: 14px; text-align: start; text-indent: -13px;&quot;&gt;Пользователь.Фамилия&lt;/span&gt;" style="html=1;outlineConnect=0;whiteSpace=wrap;fillColor=#AFFFAF;shape=note;size=14;" vertex="1" parent="5g7xQn6lhLNjcegrg2FY-35">
          <mxGeometry x="20" y="250" width="150" height="50" as="geometry" />
        </mxCell>
        <mxCell id="Cwkt_I89dFHHF9JNfeiC-69" value="&lt;span style=&quot;font-family: &amp;quot;Times New Roman&amp;quot;; font-size: 14px; text-align: start; text-indent: -13px;&quot;&gt;Пользователь.Адрес&lt;/span&gt;" style="html=1;outlineConnect=0;whiteSpace=wrap;fillColor=#AFFFAF;shape=note;size=14;" vertex="1" parent="5g7xQn6lhLNjcegrg2FY-35">
          <mxGeometry x="20" y="540" width="150" height="50" as="geometry" />
        </mxCell>
        <mxCell id="Cwkt_I89dFHHF9JNfeiC-72" value="&lt;span style=&quot;font-family: &amp;quot;Times New Roman&amp;quot;; font-size: 14px; text-align: start; text-indent: -13px;&quot;&gt;Пользователь.&lt;/span&gt;&lt;div&gt;&lt;span style=&quot;font-family: &amp;quot;Times New Roman&amp;quot;; font-size: 14px; text-align: start; text-indent: -13px;&quot;&gt;Электронная почта&lt;/span&gt;&lt;/div&gt;" style="html=1;outlineConnect=0;whiteSpace=wrap;fillColor=#AFFFAF;shape=note;size=14;" vertex="1" parent="5g7xQn6lhLNjcegrg2FY-35">
          <mxGeometry x="20" y="470" width="150" height="50" as="geometry" />
        </mxCell>
        <mxCell id="Cwkt_I89dFHHF9JNfeiC-75" value="&lt;span style=&quot;font-family: &amp;quot;Times New Roman&amp;quot;; font-size: 14px; text-align: start; text-indent: -13px;&quot;&gt;Пользователь.Имя&lt;/span&gt;" style="html=1;outlineConnect=0;whiteSpace=wrap;fillColor=#AFFFAF;shape=note;size=14;" vertex="1" parent="5g7xQn6lhLNjcegrg2FY-35">
          <mxGeometry x="20" y="175" width="150" height="50" as="geometry" />
        </mxCell>
        <mxCell id="Cwkt_I89dFHHF9JNfeiC-76" value="&lt;span style=&quot;font-family: &amp;quot;Times New Roman&amp;quot;; font-size: 14px; text-align: start; text-indent: -13px;&quot;&gt;Пользователь.Дата регистрации&lt;/span&gt;" style="html=1;outlineConnect=0;whiteSpace=wrap;fillColor=#AFFFAF;shape=note;size=14;" vertex="1" parent="5g7xQn6lhLNjcegrg2FY-35">
          <mxGeometry x="20" y="325" width="150" height="50" as="geometry" />
        </mxCell>
        <mxCell id="Cwkt_I89dFHHF9JNfeiC-78" value="&lt;span style=&quot;font-family: &amp;quot;Times New Roman&amp;quot;; font-size: 14px; text-align: start; text-indent: -13px;&quot;&gt;Пользователь.Статус&lt;/span&gt;" style="html=1;outlineConnect=0;whiteSpace=wrap;fillColor=#AFFFAF;shape=note;size=14;" vertex="1" parent="5g7xQn6lhLNjcegrg2FY-35">
          <mxGeometry x="20" y="608" width="150" height="50" as="geometry" />
        </mxCell>
        <mxCell id="Cwkt_I89dFHHF9JNfeiC-79" value="&lt;span style=&quot;font-family: &amp;quot;Times New Roman&amp;quot;; font-size: 14px; text-align: start; text-indent: -13px;&quot;&gt;Пользователь.Номер телефона&lt;/span&gt;" style="html=1;outlineConnect=0;whiteSpace=wrap;fillColor=#AFFFAF;shape=note;size=14;" vertex="1" parent="5g7xQn6lhLNjcegrg2FY-35">
          <mxGeometry x="20" y="400" width="150" height="50" as="geometry" />
        </mxCell>
        <mxCell id="Cwkt_I89dFHHF9JNfeiC-85" value="&lt;span style=&quot;font-family: &amp;quot;Times New Roman&amp;quot;; font-size: 14px; text-align: start; text-indent: -13px;&quot;&gt;БД&lt;/span&gt;&lt;div&gt;&lt;span style=&quot;font-family: &amp;quot;Times New Roman&amp;quot;; font-size: 14px; text-align: start; text-indent: -13px;&quot;&gt;Пользователи&lt;/span&gt;&lt;/div&gt;" style="html=1;outlineConnect=0;whiteSpace=wrap;fillColor=#AFFFAF;shape=mxgraph.archimate3.application;appType=artifact;archiType=square;fontColor=default;labelBackgroundColor=none;strokeColor=#FF0000;" vertex="1" parent="5g7xQn6lhLNjcegrg2FY-35">
          <mxGeometry x="20" width="150" height="75" as="geometry" />
        </mxCell>
        <mxCell id="Cwkt_I89dFHHF9JNfeiC-86" style="edgeStyle=elbowEdgeStyle;rounded=0;orthogonalLoop=1;jettySize=auto;html=1;entryX=0;entryY=0.5;entryDx=0;entryDy=0;entryPerimeter=0;exitX=0;exitY=0.5;exitDx=0;exitDy=0;exitPerimeter=0;" edge="1" parent="5g7xQn6lhLNjcegrg2FY-35" source="Cwkt_I89dFHHF9JNfeiC-75" target="Cwkt_I89dFHHF9JNfeiC-85">
          <mxGeometry relative="1" as="geometry">
            <Array as="points">
              <mxPoint y="185" />
            </Array>
          </mxGeometry>
        </mxCell>
        <mxCell id="Cwkt_I89dFHHF9JNfeiC-87" style="edgeStyle=elbowEdgeStyle;rounded=0;orthogonalLoop=1;jettySize=auto;html=1;entryX=0;entryY=0.5;entryDx=0;entryDy=0;entryPerimeter=0;exitX=0;exitY=0.5;exitDx=0;exitDy=0;exitPerimeter=0;" edge="1" parent="5g7xQn6lhLNjcegrg2FY-35" source="Cwkt_I89dFHHF9JNfeiC-67" target="Cwkt_I89dFHHF9JNfeiC-85">
          <mxGeometry relative="1" as="geometry">
            <Array as="points">
              <mxPoint y="85" />
            </Array>
          </mxGeometry>
        </mxCell>
        <mxCell id="Cwkt_I89dFHHF9JNfeiC-88" style="edgeStyle=elbowEdgeStyle;rounded=0;orthogonalLoop=1;jettySize=auto;html=1;entryX=0;entryY=0.5;entryDx=0;entryDy=0;entryPerimeter=0;exitX=0;exitY=0.5;exitDx=0;exitDy=0;exitPerimeter=0;" edge="1" parent="5g7xQn6lhLNjcegrg2FY-35" source="Cwkt_I89dFHHF9JNfeiC-68" target="Cwkt_I89dFHHF9JNfeiC-85">
          <mxGeometry relative="1" as="geometry">
            <mxPoint x="30" y="248" as="sourcePoint" />
            <mxPoint x="30" y="48" as="targetPoint" />
            <Array as="points">
              <mxPoint y="205" />
            </Array>
          </mxGeometry>
        </mxCell>
        <mxCell id="Cwkt_I89dFHHF9JNfeiC-89" style="edgeStyle=elbowEdgeStyle;rounded=0;orthogonalLoop=1;jettySize=auto;html=1;entryX=0;entryY=0.5;entryDx=0;entryDy=0;entryPerimeter=0;exitX=0;exitY=0.5;exitDx=0;exitDy=0;exitPerimeter=0;" edge="1" parent="5g7xQn6lhLNjcegrg2FY-35" source="Cwkt_I89dFHHF9JNfeiC-76" target="Cwkt_I89dFHHF9JNfeiC-85">
          <mxGeometry relative="1" as="geometry">
            <mxPoint x="-23" y="448" as="sourcePoint" />
            <mxPoint x="-23" y="148" as="targetPoint" />
            <Array as="points">
              <mxPoint y="250" />
            </Array>
          </mxGeometry>
        </mxCell>
        <mxCell id="Cwkt_I89dFHHF9JNfeiC-90" style="edgeStyle=elbowEdgeStyle;rounded=0;orthogonalLoop=1;jettySize=auto;html=1;entryX=0;entryY=0.5;entryDx=0;entryDy=0;entryPerimeter=0;exitX=0;exitY=0.5;exitDx=0;exitDy=0;exitPerimeter=0;" edge="1" parent="5g7xQn6lhLNjcegrg2FY-35" source="Cwkt_I89dFHHF9JNfeiC-79" target="Cwkt_I89dFHHF9JNfeiC-85">
          <mxGeometry relative="1" as="geometry">
            <mxPoint x="-30" y="520.5" as="sourcePoint" />
            <mxPoint x="-30" y="120.5" as="targetPoint" />
            <Array as="points">
              <mxPoint y="300" />
            </Array>
          </mxGeometry>
        </mxCell>
        <mxCell id="Cwkt_I89dFHHF9JNfeiC-91" style="edgeStyle=elbowEdgeStyle;rounded=0;orthogonalLoop=1;jettySize=auto;html=1;entryX=0;entryY=0.5;entryDx=0;entryDy=0;entryPerimeter=0;exitX=0;exitY=0.5;exitDx=0;exitDy=0;exitPerimeter=0;" edge="1" parent="5g7xQn6lhLNjcegrg2FY-35" source="Cwkt_I89dFHHF9JNfeiC-72" target="Cwkt_I89dFHHF9JNfeiC-85">
          <mxGeometry relative="1" as="geometry">
            <mxPoint x="-30" y="633.5" as="sourcePoint" />
            <mxPoint x="-30" y="133.5" as="targetPoint" />
            <Array as="points">
              <mxPoint y="350" />
            </Array>
          </mxGeometry>
        </mxCell>
        <mxCell id="Cwkt_I89dFHHF9JNfeiC-92" style="edgeStyle=elbowEdgeStyle;rounded=0;orthogonalLoop=1;jettySize=auto;html=1;entryX=0;entryY=0.5;entryDx=0;entryDy=0;entryPerimeter=0;exitX=0;exitY=0.5;exitDx=0;exitDy=0;exitPerimeter=0;" edge="1" parent="5g7xQn6lhLNjcegrg2FY-35" source="Cwkt_I89dFHHF9JNfeiC-69" target="Cwkt_I89dFHHF9JNfeiC-85">
          <mxGeometry relative="1" as="geometry">
            <mxPoint x="-23" y="735.5" as="sourcePoint" />
            <mxPoint x="-23" y="135.5" as="targetPoint" />
            <Array as="points">
              <mxPoint y="390" />
            </Array>
          </mxGeometry>
        </mxCell>
        <mxCell id="Cwkt_I89dFHHF9JNfeiC-93" style="edgeStyle=elbowEdgeStyle;rounded=0;orthogonalLoop=1;jettySize=auto;html=1;entryX=0;entryY=0.5;entryDx=0;entryDy=0;entryPerimeter=0;exitX=0;exitY=0.5;exitDx=0;exitDy=0;exitPerimeter=0;" edge="1" parent="5g7xQn6lhLNjcegrg2FY-35" source="Cwkt_I89dFHHF9JNfeiC-78" target="Cwkt_I89dFHHF9JNfeiC-85">
          <mxGeometry relative="1" as="geometry">
            <mxPoint x="-40" y="870.5" as="sourcePoint" />
            <mxPoint x="-40" y="170.5" as="targetPoint" />
            <Array as="points">
              <mxPoint y="460" />
            </Array>
          </mxGeometry>
        </mxCell>
        <mxCell id="Cwkt_I89dFHHF9JNfeiC-94" style="edgeStyle=elbowEdgeStyle;rounded=0;orthogonalLoop=1;jettySize=auto;html=1;entryX=0;entryY=0.5;entryDx=0;entryDy=0;entryPerimeter=0;exitX=0;exitY=0.5;exitDx=0;exitDy=0;exitPerimeter=0;" edge="1" parent="5g7xQn6lhLNjcegrg2FY-35" source="Cwkt_I89dFHHF9JNfeiC-65" target="Cwkt_I89dFHHF9JNfeiC-85">
          <mxGeometry relative="1" as="geometry">
            <mxPoint y="950.5" as="sourcePoint" />
            <mxPoint y="150.5" as="targetPoint" />
            <Array as="points">
              <mxPoint y="490" />
            </Array>
          </mxGeometry>
        </mxCell>
        <mxCell id="Cwkt_I89dFHHF9JNfeiC-95" style="edgeStyle=elbowEdgeStyle;rounded=0;orthogonalLoop=1;jettySize=auto;html=1;entryX=0;entryY=0.5;entryDx=0;entryDy=0;entryPerimeter=0;exitX=0;exitY=0.5;exitDx=0;exitDy=0;exitPerimeter=0;" edge="1" parent="5g7xQn6lhLNjcegrg2FY-35" source="Cwkt_I89dFHHF9JNfeiC-66" target="Cwkt_I89dFHHF9JNfeiC-85">
          <mxGeometry relative="1" as="geometry">
            <mxPoint x="-30" y="1060.5" as="sourcePoint" />
            <mxPoint x="-30" y="160.5" as="targetPoint" />
            <Array as="points">
              <mxPoint y="560" />
            </Array>
          </mxGeometry>
        </mxCell>
        <mxCell id="5g7xQn6lhLNjcegrg2FY-36" value="" style="edgeStyle=elbowEdgeStyle;html=1;endArrow=open;elbow=vertical;endFill=0;dashed=1;dashPattern=1 4;rounded=0;entryX=0.5;entryY=0;entryDx=0;entryDy=0;entryPerimeter=0;exitX=0.5;exitY=1;exitDx=0;exitDy=0;exitPerimeter=0;" edge="1" parent="Cwkt_I89dFHHF9JNfeiC-1" source="GUKaVtx0HizPZe3K6GCj-18" target="Cwkt_I89dFHHF9JNfeiC-85">
          <mxGeometry width="160" relative="1" as="geometry">
            <mxPoint x="2195" y="1433" as="sourcePoint" />
            <mxPoint x="2195" y="1970" as="targetPoint" />
          </mxGeometry>
        </mxCell>
        <mxCell id="5g7xQn6lhLNjcegrg2FY-46" value="" style="group" vertex="1" connectable="0" parent="Cwkt_I89dFHHF9JNfeiC-1">
          <mxGeometry x="1480" y="1850" width="170" height="150" as="geometry" />
        </mxCell>
        <mxCell id="5g7xQn6lhLNjcegrg2FY-39" value="&lt;span style=&quot;font-family: &amp;quot;Times New Roman&amp;quot;; font-size: 14px; text-align: start; text-indent: -13px;&quot;&gt;JWT&lt;/span&gt;" style="html=1;outlineConnect=0;whiteSpace=wrap;fillColor=#AFFFAF;shape=note;size=14;" vertex="1" parent="5g7xQn6lhLNjcegrg2FY-46">
          <mxGeometry x="20" y="100" width="150" height="50" as="geometry" />
        </mxCell>
        <mxCell id="5g7xQn6lhLNjcegrg2FY-42" value="&lt;span style=&quot;font-family: &amp;quot;Times New Roman&amp;quot;; font-size: 14px; text-align: start; text-indent: -13px;&quot;&gt;БД&lt;/span&gt;&lt;div&gt;&lt;span style=&quot;font-family: &amp;quot;Times New Roman&amp;quot;; font-size: 14px; text-align: start; text-indent: -13px;&quot;&gt;Токенов&lt;/span&gt;&lt;/div&gt;" style="html=1;outlineConnect=0;whiteSpace=wrap;fillColor=#AFFFAF;shape=mxgraph.archimate3.application;appType=artifact;archiType=square;fontColor=default;labelBackgroundColor=none;strokeColor=#FF0000;" vertex="1" parent="5g7xQn6lhLNjcegrg2FY-46">
          <mxGeometry x="20" width="150" height="75" as="geometry" />
        </mxCell>
        <mxCell id="5g7xQn6lhLNjcegrg2FY-43" style="edgeStyle=elbowEdgeStyle;rounded=0;orthogonalLoop=1;jettySize=auto;html=1;entryX=0;entryY=0.5;entryDx=0;entryDy=0;entryPerimeter=0;exitX=0;exitY=0.5;exitDx=0;exitDy=0;exitPerimeter=0;" edge="1" parent="5g7xQn6lhLNjcegrg2FY-46" source="5g7xQn6lhLNjcegrg2FY-39" target="5g7xQn6lhLNjcegrg2FY-42">
          <mxGeometry relative="1" as="geometry">
            <mxPoint x="-50" y="130.5" as="sourcePoint" />
            <mxPoint x="-50" y="30.5" as="targetPoint" />
            <Array as="points">
              <mxPoint y="90" />
            </Array>
          </mxGeometry>
        </mxCell>
        <mxCell id="5g7xQn6lhLNjcegrg2FY-47" value="" style="edgeStyle=elbowEdgeStyle;html=1;endArrow=open;elbow=vertical;endFill=0;dashed=1;dashPattern=1 4;rounded=0;entryX=0.5;entryY=0;entryDx=0;entryDy=0;entryPerimeter=0;exitX=0.5;exitY=1;exitDx=0;exitDy=0;exitPerimeter=0;" edge="1" parent="Cwkt_I89dFHHF9JNfeiC-1" source="GUKaVtx0HizPZe3K6GCj-13" target="5g7xQn6lhLNjcegrg2FY-42">
          <mxGeometry width="160" relative="1" as="geometry">
            <mxPoint x="1945" y="1440" as="sourcePoint" />
            <mxPoint x="1945" y="1970" as="targetPoint" />
            <Array as="points">
              <mxPoint x="1550" y="1210" />
            </Array>
          </mxGeometry>
        </mxCell>
        <mxCell id="PV53VuxMYT6FmmK1_UI_-0" value="Администратор" style="html=1;outlineConnect=0;whiteSpace=wrap;fillColor=#ffff99;verticalLabelPosition=bottom;verticalAlign=top;align=center;shape=mxgraph.archimate3.actor;aspect=fixed;" vertex="1" parent="Cwkt_I89dFHHF9JNfeiC-1">
          <mxGeometry x="490" y="155" width="74.2" height="140" as="geometry" />
        </mxCell>
        <mxCell id="PV53VuxMYT6FmmK1_UI_-1" value="Специалист&amp;nbsp; поддержки" style="html=1;outlineConnect=0;whiteSpace=wrap;fillColor=#ffff99;verticalLabelPosition=bottom;verticalAlign=top;align=center;shape=mxgraph.archimate3.actor;aspect=fixed;" vertex="1" parent="Cwkt_I89dFHHF9JNfeiC-1">
          <mxGeometry x="110.00000000000011" y="775" width="74.2" height="140" as="geometry" />
        </mxCell>
        <mxCell id="3kxZBZpP1Y8e4yoBvf3H-0" value="" style="html=1;endArrow=block;dashed=1;endFill=1;dashPattern=6 4;rounded=0;exitX=1;exitY=0.45;exitDx=0;exitDy=0;exitPerimeter=0;entryX=0;entryY=0.5;entryDx=0;entryDy=0;entryPerimeter=0;jumpStyle=line;" edge="1" parent="Cwkt_I89dFHHF9JNfeiC-1" source="PV53VuxMYT6FmmK1_UI_-1" target="20xxNQtNDSxM4y85c0yb-3">
          <mxGeometry width="160" relative="1" as="geometry">
            <mxPoint x="580" y="860" as="sourcePoint" />
            <mxPoint x="740" y="860" as="targetPoint" />
          </mxGeometry>
        </mxCell>
        <mxCell id="FT2lVYNtyWNvXSqMtCFU-2" value="Изменить статус заявки на поддержку" style="edgeLabel;html=1;align=center;verticalAlign=middle;resizable=0;points=[];" vertex="1" connectable="0" parent="3kxZBZpP1Y8e4yoBvf3H-0">
          <mxGeometry x="0.272" y="1" relative="1" as="geometry">
            <mxPoint x="-30" y="-13" as="offset" />
          </mxGeometry>
        </mxCell>
        <mxCell id="FT2lVYNtyWNvXSqMtCFU-3" value="" style="edgeStyle=orthogonalEdgeStyle;html=1;endArrow=block;dashed=1;endFill=1;dashPattern=6 4;rounded=0;jumpStyle=line;entryX=0;entryY=0;entryDx=2.9;entryDy=2.9;entryPerimeter=0;elbow=vertical;exitX=1;exitY=1;exitDx=0;exitDy=0;exitPerimeter=0;" edge="1" parent="Cwkt_I89dFHHF9JNfeiC-1" source="PV53VuxMYT6FmmK1_UI_-0" target="958O7Rn043K1TKB3Eg0P-3">
          <mxGeometry width="160" relative="1" as="geometry">
            <mxPoint x="827" y="250" as="sourcePoint" />
            <mxPoint x="1710" y="280" as="targetPoint" />
            <Array as="points">
              <mxPoint x="650" y="295" />
              <mxPoint x="650" y="560" />
              <mxPoint x="1163" y="560" />
            </Array>
          </mxGeometry>
        </mxCell>
        <mxCell id="FT2lVYNtyWNvXSqMtCFU-4" value="&lt;div&gt;Редактировать аукцион&lt;/div&gt;" style="edgeLabel;html=1;align=center;verticalAlign=middle;resizable=0;points=[];" vertex="1" connectable="0" parent="FT2lVYNtyWNvXSqMtCFU-3">
          <mxGeometry x="0.272" y="1" relative="1" as="geometry">
            <mxPoint x="-245" y="-219" as="offset" />
          </mxGeometry>
        </mxCell>
        <mxCell id="R3zXcx27FfcjbCAe7E33-0" value="" style="edgeStyle=orthogonalEdgeStyle;html=1;endArrow=block;dashed=1;endFill=1;dashPattern=6 4;rounded=0;entryX=0.25;entryY=0;entryDx=0;entryDy=0;entryPerimeter=0;jumpStyle=line;exitX=0;exitY=0.45;exitDx=0;exitDy=0;exitPerimeter=0;elbow=vertical;" edge="1" parent="Cwkt_I89dFHHF9JNfeiC-1" source="PV53VuxMYT6FmmK1_UI_-0" target="20xxNQtNDSxM4y85c0yb-3">
          <mxGeometry width="160" relative="1" as="geometry">
            <mxPoint x="680" y="290" as="sourcePoint" />
            <mxPoint x="597.9000000000001" y="490" as="targetPoint" />
            <Array as="points">
              <mxPoint x="330" y="218" />
              <mxPoint x="330" y="610" />
              <mxPoint x="533" y="610" />
            </Array>
          </mxGeometry>
        </mxCell>
        <mxCell id="R3zXcx27FfcjbCAe7E33-1" value="&lt;div&gt;Валидировать заявку&lt;br&gt;&lt;/div&gt;" style="edgeLabel;html=1;align=center;verticalAlign=middle;resizable=0;points=[];" vertex="1" connectable="0" parent="R3zXcx27FfcjbCAe7E33-0">
          <mxGeometry x="0.272" y="1" relative="1" as="geometry">
            <mxPoint x="39" y="-340" as="offset" />
          </mxGeometry>
        </mxCell>
        <mxCell id="R3zXcx27FfcjbCAe7E33-7" value="" style="edgeStyle=orthogonalEdgeStyle;html=1;endArrow=block;dashed=1;endFill=1;dashPattern=6 4;rounded=0;strokeColor=#FF0000;jumpStyle=line;exitX=0;exitY=1;exitDx=0;exitDy=0;exitPerimeter=0;entryX=0.25;entryY=0;entryDx=0;entryDy=0;entryPerimeter=0;" edge="1" parent="Cwkt_I89dFHHF9JNfeiC-1" source="PV53VuxMYT6FmmK1_UI_-0" target="GUKaVtx0HizPZe3K6GCj-7">
          <mxGeometry width="160" relative="1" as="geometry">
            <mxPoint x="650" y="510" as="sourcePoint" />
            <mxPoint x="1150" y="460" as="targetPoint" />
            <Array as="points">
              <mxPoint x="420" y="295" />
              <mxPoint x="420" y="580" />
              <mxPoint x="943" y="580" />
              <mxPoint x="943" y="630" />
            </Array>
          </mxGeometry>
        </mxCell>
        <mxCell id="R3zXcx27FfcjbCAe7E33-8" value="&lt;div&gt;Создать торговую площадку&lt;/div&gt;&lt;div&gt;Изменить торговую площадку&lt;/div&gt;&lt;div&gt;Удалить торговую площадку&lt;/div&gt;" style="edgeLabel;html=1;align=center;verticalAlign=middle;resizable=0;points=[];" vertex="1" connectable="0" parent="R3zXcx27FfcjbCAe7E33-7">
          <mxGeometry x="0.272" y="1" relative="1" as="geometry">
            <mxPoint x="-215" y="-229" as="offset" />
          </mxGeometry>
        </mxCell>
        <mxCell id="uMABIMa9FNiDgCHpWDLz-1" value="" style="edgeStyle=elbowEdgeStyle;html=1;endArrow=block;dashed=0;elbow=horizontal;endFill=1;rounded=0;entryX=0;entryY=0.319;entryDx=0;entryDy=0;entryPerimeter=0;" edge="1" parent="Cwkt_I89dFHHF9JNfeiC-1" target="NQUhaPXB7SI2o4ro_eER-1">
          <mxGeometry width="160" relative="1" as="geometry">
            <mxPoint x="3520" y="690" as="sourcePoint" />
            <mxPoint x="3870" y="700" as="targetPoint" />
            <Array as="points">
              <mxPoint x="3850" y="540" />
            </Array>
          </mxGeometry>
        </mxCell>
        <mxCell id="uMABIMa9FNiDgCHpWDLz-2" value="&lt;div&gt;Поток 13.&lt;/div&gt;Инициировать платеж&lt;div&gt;[Пользователь.ID]&lt;/div&gt;&lt;div&gt;[Заказ.ID][Заказ.Сумма]&lt;/div&gt;" style="edgeLabel;html=1;align=center;verticalAlign=middle;resizable=0;points=[];" vertex="1" connectable="0" parent="uMABIMa9FNiDgCHpWDLz-1">
          <mxGeometry x="0.1766" y="-1" relative="1" as="geometry">
            <mxPoint x="-101" y="189" as="offset" />
          </mxGeometry>
        </mxCell>
        <mxCell id="uMABIMa9FNiDgCHpWDLz-3" value="" style="edgeStyle=elbowEdgeStyle;html=1;endArrow=block;dashed=0;elbow=horizontal;endFill=1;rounded=0;exitX=0.002;exitY=0.358;exitDx=0;exitDy=0;exitPerimeter=0;entryX=1.001;entryY=0.196;entryDx=0;entryDy=0;entryPerimeter=0;" edge="1" parent="Cwkt_I89dFHHF9JNfeiC-1" source="NQUhaPXB7SI2o4ro_eER-1" target="958O7Rn043K1TKB3Eg0P-0">
          <mxGeometry width="160" relative="1" as="geometry">
            <mxPoint x="3520" y="750" as="sourcePoint" />
            <mxPoint x="3520" y="760" as="targetPoint" />
            <Array as="points">
              <mxPoint x="3870" y="600" />
            </Array>
          </mxGeometry>
        </mxCell>
        <mxCell id="uMABIMa9FNiDgCHpWDLz-4" value="&lt;div&gt;Поток 14.&lt;/div&gt;Предоставить статус платежа&lt;div&gt;[Транзакция.ID] [Транзакция.Статус]&lt;/div&gt;" style="edgeLabel;html=1;align=center;verticalAlign=middle;resizable=0;points=[];" vertex="1" connectable="0" parent="uMABIMa9FNiDgCHpWDLz-3">
          <mxGeometry x="0.1766" y="-1" relative="1" as="geometry">
            <mxPoint x="-119" y="39" as="offset" />
          </mxGeometry>
        </mxCell>
        <mxCell id="uMABIMa9FNiDgCHpWDLz-5" value="" style="edgeStyle=elbowEdgeStyle;html=1;endArrow=block;dashed=0;elbow=horizontal;endFill=1;rounded=0;entryX=0;entryY=0.402;entryDx=0;entryDy=0;entryPerimeter=0;exitX=1.001;exitY=0.312;exitDx=0;exitDy=0;exitPerimeter=0;" edge="1" parent="Cwkt_I89dFHHF9JNfeiC-1" source="958O7Rn043K1TKB3Eg0P-0" target="NQUhaPXB7SI2o4ro_eER-1">
          <mxGeometry width="160" relative="1" as="geometry">
            <mxPoint x="3520" y="841.52" as="sourcePoint" />
            <mxPoint x="4010" y="544.52" as="targetPoint" />
            <Array as="points">
              <mxPoint x="3890" y="650" />
            </Array>
          </mxGeometry>
        </mxCell>
        <mxCell id="uMABIMa9FNiDgCHpWDLz-6" value="&lt;div&gt;Поток 15.&lt;/div&gt;Подтверждение платежа&lt;div&gt;[Транзакция.ID]&lt;/div&gt;" style="edgeLabel;html=1;align=center;verticalAlign=middle;resizable=0;points=[];" vertex="1" connectable="0" parent="uMABIMa9FNiDgCHpWDLz-5">
          <mxGeometry x="0.1766" y="-1" relative="1" as="geometry">
            <mxPoint x="-141" y="204" as="offset" />
          </mxGeometry>
        </mxCell>
        <mxCell id="uMABIMa9FNiDgCHpWDLz-7" value="" style="edgeStyle=elbowEdgeStyle;html=1;endArrow=block;dashed=0;elbow=horizontal;endFill=1;rounded=0;entryX=0;entryY=0.402;entryDx=0;entryDy=0;entryPerimeter=0;exitX=1;exitY=0.405;exitDx=0;exitDy=0;exitPerimeter=0;" edge="1" parent="Cwkt_I89dFHHF9JNfeiC-1" source="958O7Rn043K1TKB3Eg0P-0">
          <mxGeometry width="160" relative="1" as="geometry">
            <mxPoint x="3600" y="1060" as="sourcePoint" />
            <mxPoint x="4050" y="528.48" as="targetPoint" />
            <Array as="points">
              <mxPoint x="3910" y="710" />
            </Array>
          </mxGeometry>
        </mxCell>
        <mxCell id="uMABIMa9FNiDgCHpWDLz-8" value="&lt;div&gt;Поток 16.&lt;/div&gt;Запросить статус платежа&lt;div&gt;[Транзакция.ID]&lt;/div&gt;" style="edgeLabel;html=1;align=center;verticalAlign=middle;resizable=0;points=[];" vertex="1" connectable="0" parent="uMABIMa9FNiDgCHpWDLz-7">
          <mxGeometry x="0.1766" y="-1" relative="1" as="geometry">
            <mxPoint x="-161" y="190" as="offset" />
          </mxGeometry>
        </mxCell>
        <mxCell id="uMABIMa9FNiDgCHpWDLz-9" value="" style="edgeStyle=elbowEdgeStyle;html=1;endArrow=block;dashed=0;elbow=horizontal;endFill=1;rounded=0;exitX=0.002;exitY=0.358;exitDx=0;exitDy=0;exitPerimeter=0;entryX=1;entryY=0.5;entryDx=0;entryDy=0;entryPerimeter=0;" edge="1" parent="Cwkt_I89dFHHF9JNfeiC-1" target="958O7Rn043K1TKB3Eg0P-0">
          <mxGeometry width="160" relative="1" as="geometry">
            <mxPoint x="4050" y="630" as="sourcePoint" />
            <mxPoint x="3519" y="961" as="targetPoint" />
            <Array as="points">
              <mxPoint x="3930" y="800" />
            </Array>
          </mxGeometry>
        </mxCell>
        <mxCell id="uMABIMa9FNiDgCHpWDLz-10" value="&lt;div&gt;Поток 17.&lt;/div&gt;Подтверждение отмены платежа&lt;div&gt;[Транзакция.Статус]&lt;/div&gt;" style="edgeLabel;html=1;align=center;verticalAlign=middle;resizable=0;points=[];" vertex="1" connectable="0" parent="uMABIMa9FNiDgCHpWDLz-9">
          <mxGeometry x="0.1766" y="-1" relative="1" as="geometry">
            <mxPoint x="-150" y="27" as="offset" />
          </mxGeometry>
        </mxCell>
        <mxCell id="uMABIMa9FNiDgCHpWDLz-18" value="" style="edgeStyle=orthogonalEdgeStyle;html=1;endArrow=block;dashed=1;endFill=1;dashPattern=6 4;rounded=0;strokeColor=#FF0000;jumpStyle=line;entryX=0.25;entryY=0;entryDx=0;entryDy=0;entryPerimeter=0;exitX=1;exitY=0.45;exitDx=0;exitDy=0;exitPerimeter=0;" edge="1" parent="Cwkt_I89dFHHF9JNfeiC-1" source="PV53VuxMYT6FmmK1_UI_-0" target="GUKaVtx0HizPZe3K6GCj-13">
          <mxGeometry width="160" relative="1" as="geometry">
            <mxPoint x="330" y="1000" as="sourcePoint" />
            <mxPoint x="1070" y="550" as="targetPoint" />
            <Array as="points">
              <mxPoint x="1513" y="218" />
            </Array>
          </mxGeometry>
        </mxCell>
        <mxCell id="uMABIMa9FNiDgCHpWDLz-19" value="Управление ролями RBAC" style="edgeLabel;html=1;align=center;verticalAlign=middle;resizable=0;points=[];" vertex="1" connectable="0" parent="uMABIMa9FNiDgCHpWDLz-18">
          <mxGeometry x="0.272" y="1" relative="1" as="geometry">
            <mxPoint x="-584" y="-11" as="offset" />
          </mxGeometry>
        </mxCell>
        <mxCell id="uMABIMa9FNiDgCHpWDLz-54" value="" style="edgeStyle=elbowEdgeStyle;html=1;endArrow=block;dashed=0;endFill=1;rounded=0;entryX=0.25;entryY=0;entryDx=0;entryDy=0;entryPerimeter=0;exitX=0.25;exitY=1;exitDx=0;exitDy=0;exitPerimeter=0;strokeColor=#FF0000;elbow=vertical;" edge="1" parent="Cwkt_I89dFHHF9JNfeiC-1" source="Cwkt_I89dFHHF9JNfeiC-5" target="GUKaVtx0HizPZe3K6GCj-18">
          <mxGeometry width="160" relative="1" as="geometry">
            <mxPoint x="2030" y="410" as="sourcePoint" />
            <mxPoint x="1850" y="790" as="targetPoint" />
            <Array as="points">
              <mxPoint x="2070" y="490" />
            </Array>
          </mxGeometry>
        </mxCell>
        <mxCell id="uMABIMa9FNiDgCHpWDLz-55" value="&lt;div&gt;Поток 1.&lt;/div&gt;&lt;div&gt;Аутентификация пользователя&lt;/div&gt;" style="edgeLabel;html=1;align=center;verticalAlign=middle;resizable=0;points=[];" vertex="1" connectable="0" parent="uMABIMa9FNiDgCHpWDLz-54">
          <mxGeometry x="0.1766" y="-1" relative="1" as="geometry">
            <mxPoint x="-11" y="1" as="offset" />
          </mxGeometry>
        </mxCell>
        <mxCell id="SR37dmXp9e3M8A0iMrwx-1" value="" style="group" vertex="1" connectable="0" parent="Cwkt_I89dFHHF9JNfeiC-1">
          <mxGeometry x="1450" y="630" width="250" height="430" as="geometry" />
        </mxCell>
        <mxCell id="GUKaVtx0HizPZe3K6GCj-13" value="&lt;div&gt;Сервис Безопасности&lt;/div&gt;&lt;div&gt;&lt;span style=&quot;background-color: initial;&quot;&gt;[Golang]&lt;/span&gt;&lt;br&gt;&lt;/div&gt;" style="html=1;outlineConnect=0;whiteSpace=wrap;fillColor=#99ffff;shape=mxgraph.archimate3.application;appType=serv;archiType=rounded;align=left;verticalAlign=top;strokeColor=#FF0000;" vertex="1" parent="SR37dmXp9e3M8A0iMrwx-1">
          <mxGeometry width="250" height="430" as="geometry" />
        </mxCell>
        <mxCell id="Cwkt_I89dFHHF9JNfeiC-19" value="&lt;span style=&quot;font-size: 13px;&quot;&gt;Валидация токена безопасности&lt;/span&gt;" style="html=1;outlineConnect=0;whiteSpace=wrap;fillColor=#99ffff;shape=mxgraph.archimate3.application;appType=func;archiType=rounded;" vertex="1" parent="SR37dmXp9e3M8A0iMrwx-1">
          <mxGeometry x="50" y="152.5" width="150" height="75" as="geometry" />
        </mxCell>
        <mxCell id="uMABIMa9FNiDgCHpWDLz-12" value="&lt;span style=&quot;font-size: 13px;&quot;&gt;Обновление токена безопасности&lt;/span&gt;" style="html=1;outlineConnect=0;whiteSpace=wrap;fillColor=#99ffff;shape=mxgraph.archimate3.application;appType=func;archiType=rounded;strokeColor=#FF0000;" vertex="1" parent="SR37dmXp9e3M8A0iMrwx-1">
          <mxGeometry x="50" y="240" width="150" height="75" as="geometry" />
        </mxCell>
        <mxCell id="uMABIMa9FNiDgCHpWDLz-16" value="&lt;span style=&quot;font-size: 13px;&quot;&gt;Ролевая модель доступов (RBAC)&lt;/span&gt;" style="html=1;outlineConnect=0;whiteSpace=wrap;fillColor=#99ffff;shape=mxgraph.archimate3.application;appType=func;archiType=rounded;strokeColor=#FF0000;" vertex="1" parent="SR37dmXp9e3M8A0iMrwx-1">
          <mxGeometry x="50" y="330" width="150" height="75" as="geometry" />
        </mxCell>
        <mxCell id="SR37dmXp9e3M8A0iMrwx-0" value="&lt;span style=&quot;font-size: 13px;&quot;&gt;Создание токена безопасности&lt;/span&gt;" style="html=1;outlineConnect=0;whiteSpace=wrap;fillColor=#99ffff;shape=mxgraph.archimate3.application;appType=func;archiType=rounded;strokeColor=#FF0000;" vertex="1" parent="SR37dmXp9e3M8A0iMrwx-1">
          <mxGeometry x="50" y="65" width="150" height="75" as="geometry" />
        </mxCell>
        <mxCell id="SR37dmXp9e3M8A0iMrwx-2" value="" style="edgeStyle=elbowEdgeStyle;html=1;endArrow=block;dashed=0;endFill=1;rounded=0;entryX=0.75;entryY=0;entryDx=0;entryDy=0;entryPerimeter=0;exitX=0;exitY=0;exitDx=2.9;exitDy=2.9;exitPerimeter=0;strokeColor=#FF0000;" edge="1" parent="Cwkt_I89dFHHF9JNfeiC-1" source="GUKaVtx0HizPZe3K6GCj-18" target="GUKaVtx0HizPZe3K6GCj-13">
          <mxGeometry width="160" relative="1" as="geometry">
            <mxPoint x="1875" y="508" as="sourcePoint" />
            <mxPoint x="1700" y="695" as="targetPoint" />
            <Array as="points">
              <mxPoint x="1690" y="530" />
            </Array>
          </mxGeometry>
        </mxCell>
        <mxCell id="SR37dmXp9e3M8A0iMrwx-3" value="&lt;div&gt;Поток 2.&lt;/div&gt;&lt;div&gt;Авторизация пользователя&lt;/div&gt;" style="edgeLabel;html=1;align=center;verticalAlign=middle;resizable=0;points=[];" vertex="1" connectable="0" parent="SR37dmXp9e3M8A0iMrwx-2">
          <mxGeometry x="0.1766" y="-1" relative="1" as="geometry">
            <mxPoint x="24" y="-16" as="offset" />
          </mxGeometry>
        </mxCell>
        <mxCell id="SR37dmXp9e3M8A0iMrwx-4" value="" style="html=1;endArrow=block;dashed=0;endFill=1;rounded=0;exitX=0.44;exitY=1.001;exitDx=0;exitDy=0;exitPerimeter=0;strokeColor=#FF0000;startArrow=none;startFill=0;entryX=0.75;entryY=0;entryDx=0;entryDy=0;entryPerimeter=0;edgeStyle=elbowEdgeStyle;elbow=vertical;" edge="1" parent="Cwkt_I89dFHHF9JNfeiC-1" source="Cwkt_I89dFHHF9JNfeiC-5" target="GUKaVtx0HizPZe3K6GCj-18">
          <mxGeometry width="160" relative="1" as="geometry">
            <mxPoint x="2183" y="1267.5" as="sourcePoint" />
            <mxPoint x="2260" y="1650" as="targetPoint" />
            <Array as="points">
              <mxPoint x="2320" y="550" />
            </Array>
          </mxGeometry>
        </mxCell>
        <mxCell id="SR37dmXp9e3M8A0iMrwx-8" value="Поток 4.&lt;div&gt;Добавление товара пользователю&lt;br&gt;&lt;/div&gt;" style="edgeLabel;html=1;align=center;verticalAlign=middle;resizable=0;points=[];" vertex="1" connectable="0" parent="SR37dmXp9e3M8A0iMrwx-4">
          <mxGeometry x="0.0093" relative="1" as="geometry">
            <mxPoint x="-19" as="offset" />
          </mxGeometry>
        </mxCell>
        <mxCell id="SR37dmXp9e3M8A0iMrwx-6" value="" style="html=1;endArrow=block;dashed=0;endFill=1;rounded=0;exitX=0.347;exitY=1.001;exitDx=0;exitDy=0;exitPerimeter=0;strokeColor=#FF0000;startArrow=none;startFill=0;entryX=0.5;entryY=0;entryDx=0;entryDy=0;entryPerimeter=0;edgeStyle=elbowEdgeStyle;elbow=vertical;" edge="1" parent="Cwkt_I89dFHHF9JNfeiC-1" source="Cwkt_I89dFHHF9JNfeiC-5" target="GUKaVtx0HizPZe3K6GCj-18">
          <mxGeometry width="160" relative="1" as="geometry">
            <mxPoint x="2250" y="1438" as="sourcePoint" />
            <mxPoint x="2480" y="1210" as="targetPoint" />
            <Array as="points">
              <mxPoint x="2200" y="520" />
            </Array>
          </mxGeometry>
        </mxCell>
        <mxCell id="SR37dmXp9e3M8A0iMrwx-7" value="Поток 3.&lt;div&gt;Добавление услуги пользователю&lt;/div&gt;" style="edgeLabel;html=1;align=center;verticalAlign=middle;resizable=0;points=[];" vertex="1" connectable="0" parent="SR37dmXp9e3M8A0iMrwx-6">
          <mxGeometry x="0.3889" y="-2" relative="1" as="geometry">
            <mxPoint x="66" y="2" as="offset" />
          </mxGeometry>
        </mxCell>
        <mxCell id="SR37dmXp9e3M8A0iMrwx-11" value="" style="edgeStyle=elbowEdgeStyle;html=1;endArrow=block;dashed=0;endFill=1;rounded=0;exitX=0.875;exitY=1.001;exitDx=0;exitDy=0;exitPerimeter=0;strokeColor=#FF0000;startArrow=none;startFill=0;elbow=vertical;entryX=0.75;entryY=0;entryDx=0;entryDy=0;entryPerimeter=0;" edge="1" parent="Cwkt_I89dFHHF9JNfeiC-1" source="Cwkt_I89dFHHF9JNfeiC-5" target="20xxNQtNDSxM4y85c0yb-19">
          <mxGeometry width="160" relative="1" as="geometry">
            <mxPoint x="1843" y="1100" as="sourcePoint" />
            <mxPoint x="1940" y="1300" as="targetPoint" />
            <Array as="points">
              <mxPoint x="3110" y="480" />
            </Array>
          </mxGeometry>
        </mxCell>
        <mxCell id="SR37dmXp9e3M8A0iMrwx-12" value="&lt;div&gt;Поток 5.&lt;/div&gt;&lt;div&gt;Создание заказа&lt;/div&gt;" style="edgeLabel;html=1;align=center;verticalAlign=middle;resizable=0;points=[];" vertex="1" connectable="0" parent="SR37dmXp9e3M8A0iMrwx-11">
          <mxGeometry x="0.1766" y="-1" relative="1" as="geometry">
            <mxPoint x="-72" y="-11" as="offset" />
          </mxGeometry>
        </mxCell>
        <mxCell id="SR37dmXp9e3M8A0iMrwx-20" value="" style="group" vertex="1" connectable="0" parent="Cwkt_I89dFHHF9JNfeiC-1">
          <mxGeometry x="2370" y="630" width="250" height="310" as="geometry" />
        </mxCell>
        <mxCell id="0Vjbv6TmKK2vR3b6kO95-8" value="&lt;div&gt;Сервис Товаров&lt;/div&gt;&lt;div&gt;&lt;span style=&quot;background-color: initial;&quot;&gt;[Django/Python]&lt;/span&gt;&lt;br&gt;&lt;/div&gt;" style="html=1;outlineConnect=0;whiteSpace=wrap;fillColor=#99ffff;shape=mxgraph.archimate3.application;appType=serv;archiType=rounded;align=left;verticalAlign=top;strokeColor=#FF0000;" vertex="1" parent="SR37dmXp9e3M8A0iMrwx-20">
          <mxGeometry width="250" height="310" as="geometry" />
        </mxCell>
        <mxCell id="Cwkt_I89dFHHF9JNfeiC-40" value="&lt;span style=&quot;font-size: 13px;&quot;&gt;Поиск товаров&lt;/span&gt;" style="html=1;outlineConnect=0;whiteSpace=wrap;fillColor=#99ffff;shape=mxgraph.archimate3.application;appType=func;archiType=rounded;fontColor=default;labelBackgroundColor=none;strokeColor=default;align=center;verticalAlign=middle;fontFamily=Helvetica;fontSize=12;" vertex="1" parent="SR37dmXp9e3M8A0iMrwx-20">
          <mxGeometry x="50" y="132.5" width="150" height="75" as="geometry" />
        </mxCell>
        <mxCell id="SR37dmXp9e3M8A0iMrwx-15" value="&lt;span style=&quot;font-size: 13px;&quot;&gt;Каталог товаров&lt;/span&gt;" style="html=1;outlineConnect=0;whiteSpace=wrap;fillColor=#99ffff;shape=mxgraph.archimate3.application;appType=func;archiType=rounded;fontColor=default;labelBackgroundColor=none;strokeColor=#FF0000;align=center;verticalAlign=middle;fontFamily=Helvetica;fontSize=12;" vertex="1" parent="SR37dmXp9e3M8A0iMrwx-20">
          <mxGeometry x="50" y="50" width="150" height="75" as="geometry" />
        </mxCell>
        <mxCell id="Cwkt_I89dFHHF9JNfeiC-42" value="&lt;span style=&quot;font-size: 13px;&quot;&gt;Фильтрация и сортировка результатов&lt;/span&gt;" style="html=1;outlineConnect=0;whiteSpace=wrap;fillColor=#99ffff;shape=mxgraph.archimate3.application;appType=func;archiType=rounded;fontColor=default;labelBackgroundColor=none;strokeColor=default;align=center;verticalAlign=middle;fontFamily=Helvetica;fontSize=12;" vertex="1" parent="SR37dmXp9e3M8A0iMrwx-20">
          <mxGeometry x="50" y="220" width="150" height="75" as="geometry" />
        </mxCell>
        <mxCell id="SR37dmXp9e3M8A0iMrwx-21" value="" style="group" vertex="1" connectable="0" parent="Cwkt_I89dFHHF9JNfeiC-1">
          <mxGeometry x="2650" y="630" width="250" height="305.5" as="geometry" />
        </mxCell>
        <mxCell id="0Vjbv6TmKK2vR3b6kO95-1" value="&lt;div&gt;Сервис Услуг&lt;/div&gt;&lt;div&gt;&lt;span style=&quot;background-color: initial;&quot;&gt;[Django/Python]&lt;/span&gt;&lt;br&gt;&lt;/div&gt;" style="html=1;outlineConnect=0;whiteSpace=wrap;fillColor=#99ffff;shape=mxgraph.archimate3.application;appType=serv;archiType=rounded;align=left;verticalAlign=top;strokeColor=#FF0000;" vertex="1" parent="SR37dmXp9e3M8A0iMrwx-21">
          <mxGeometry width="250" height="305.5" as="geometry" />
        </mxCell>
        <mxCell id="Cwkt_I89dFHHF9JNfeiC-41" value="&lt;span style=&quot;font-size: 13px;&quot;&gt;Поиск услуг&lt;/span&gt;" style="html=1;outlineConnect=0;whiteSpace=wrap;fillColor=#99ffff;shape=mxgraph.archimate3.application;appType=func;archiType=rounded;fontColor=default;labelBackgroundColor=none;strokeColor=default;align=center;verticalAlign=middle;fontFamily=Helvetica;fontSize=12;" vertex="1" parent="SR37dmXp9e3M8A0iMrwx-21">
          <mxGeometry x="50" y="135.5" width="150" height="75" as="geometry" />
        </mxCell>
        <mxCell id="SR37dmXp9e3M8A0iMrwx-16" value="&lt;span style=&quot;font-size: 13px;&quot;&gt;Каталог услуг&lt;/span&gt;" style="html=1;outlineConnect=0;whiteSpace=wrap;fillColor=#99ffff;shape=mxgraph.archimate3.application;appType=func;archiType=rounded;fontColor=default;labelBackgroundColor=none;strokeColor=#FF0000;align=center;verticalAlign=middle;fontFamily=Helvetica;fontSize=12;" vertex="1" parent="SR37dmXp9e3M8A0iMrwx-21">
          <mxGeometry x="50" y="49.5" width="150" height="75" as="geometry" />
        </mxCell>
        <mxCell id="SR37dmXp9e3M8A0iMrwx-19" value="&lt;span style=&quot;font-size: 13px;&quot;&gt;Фильтрация и сортировка результатов&lt;/span&gt;" style="html=1;outlineConnect=0;whiteSpace=wrap;fillColor=#99ffff;shape=mxgraph.archimate3.application;appType=func;archiType=rounded;fontColor=default;labelBackgroundColor=none;strokeColor=default;align=center;verticalAlign=middle;fontFamily=Helvetica;fontSize=12;" vertex="1" parent="SR37dmXp9e3M8A0iMrwx-21">
          <mxGeometry x="50" y="220.5" width="150" height="75" as="geometry" />
        </mxCell>
        <mxCell id="SR37dmXp9e3M8A0iMrwx-23" value="" style="group" vertex="1" connectable="0" parent="Cwkt_I89dFHHF9JNfeiC-1">
          <mxGeometry x="1160" y="630" width="250" height="510" as="geometry" />
        </mxCell>
        <mxCell id="958O7Rn043K1TKB3Eg0P-3" value="&lt;div&gt;Сервис Аукционов&lt;/div&gt;&lt;div&gt;&lt;span style=&quot;background-color: initial;&quot;&gt;[Django/Python]&lt;/span&gt;&lt;br&gt;&lt;/div&gt;" style="html=1;outlineConnect=0;whiteSpace=wrap;fillColor=#99ffff;shape=mxgraph.archimate3.application;appType=serv;archiType=rounded;align=left;verticalAlign=top;strokeColor=#FF0000;" vertex="1" parent="SR37dmXp9e3M8A0iMrwx-23">
          <mxGeometry width="250" height="510" as="geometry" />
        </mxCell>
        <mxCell id="Cwkt_I89dFHHF9JNfeiC-35" value="&lt;span style=&quot;font-size: 13px;&quot;&gt;Создать аукцион&lt;/span&gt;" style="html=1;outlineConnect=0;whiteSpace=wrap;fillColor=#99ffff;shape=mxgraph.archimate3.application;appType=func;archiType=rounded;fontColor=default;labelBackgroundColor=none;strokeColor=default;align=center;verticalAlign=middle;fontFamily=Helvetica;fontSize=12;flipV=0;" vertex="1" parent="SR37dmXp9e3M8A0iMrwx-23">
          <mxGeometry x="50" y="50" width="150" height="75" as="geometry" />
        </mxCell>
        <mxCell id="Cwkt_I89dFHHF9JNfeiC-36" value="&lt;span style=&quot;font-size: 13px;&quot;&gt;Редактировать аукцион&lt;/span&gt;" style="html=1;outlineConnect=0;whiteSpace=wrap;fillColor=#99ffff;shape=mxgraph.archimate3.application;appType=func;archiType=rounded;fontColor=default;labelBackgroundColor=none;strokeColor=default;align=center;verticalAlign=middle;fontFamily=Helvetica;fontSize=12;flipV=0;" vertex="1" parent="SR37dmXp9e3M8A0iMrwx-23">
          <mxGeometry x="50" y="137.5" width="150" height="75" as="geometry" />
        </mxCell>
        <mxCell id="Cwkt_I89dFHHF9JNfeiC-38" value="&lt;span style=&quot;font-size: 13px;&quot;&gt;Обновление ставок аукциона&lt;/span&gt;" style="html=1;outlineConnect=0;whiteSpace=wrap;fillColor=#99ffff;shape=mxgraph.archimate3.application;appType=func;archiType=rounded;fontColor=default;labelBackgroundColor=none;strokeColor=default;align=center;verticalAlign=middle;fontFamily=Helvetica;fontSize=12;flipV=0;" vertex="1" parent="SR37dmXp9e3M8A0iMrwx-23">
          <mxGeometry x="50" y="230" width="150" height="75" as="geometry" />
        </mxCell>
        <mxCell id="Cwkt_I89dFHHF9JNfeiC-60" value="&lt;span style=&quot;font-size: 13px;&quot;&gt;Обновление статуса аукциона&lt;/span&gt;" style="html=1;outlineConnect=0;whiteSpace=wrap;fillColor=#99ffff;shape=mxgraph.archimate3.application;appType=func;archiType=rounded;fontColor=default;labelBackgroundColor=none;strokeColor=default;align=center;verticalAlign=middle;fontFamily=Helvetica;fontSize=12;flipV=0;" vertex="1" parent="SR37dmXp9e3M8A0iMrwx-23">
          <mxGeometry x="50" y="320" width="150" height="75" as="geometry" />
        </mxCell>
        <mxCell id="Cwkt_I89dFHHF9JNfeiC-39" value="&lt;span style=&quot;font-size: 13px;&quot;&gt;Нотификация участника аукциона&lt;/span&gt;" style="html=1;outlineConnect=0;whiteSpace=wrap;fillColor=#99ffff;shape=mxgraph.archimate3.application;appType=func;archiType=rounded;fontColor=default;labelBackgroundColor=none;strokeColor=default;align=center;verticalAlign=middle;fontFamily=Helvetica;fontSize=12;" vertex="1" parent="SR37dmXp9e3M8A0iMrwx-23">
          <mxGeometry x="50" y="410" width="150" height="75" as="geometry" />
        </mxCell>
        <mxCell id="SR37dmXp9e3M8A0iMrwx-25" value="" style="group" vertex="1" connectable="0" parent="Cwkt_I89dFHHF9JNfeiC-1">
          <mxGeometry x="1740" y="630" width="570" height="410" as="geometry" />
        </mxCell>
        <mxCell id="GUKaVtx0HizPZe3K6GCj-18" value="&lt;div&gt;Сервис Профиль пользователя&lt;/div&gt;&lt;div&gt;&lt;span style=&quot;background-color: initial;&quot;&gt;[Django/Python]&lt;/span&gt;&lt;br&gt;&lt;/div&gt;" style="html=1;outlineConnect=0;whiteSpace=wrap;fillColor=#99ffff;shape=mxgraph.archimate3.application;appType=serv;archiType=rounded;align=left;verticalAlign=top;strokeColor=#FF0000;" vertex="1" parent="SR37dmXp9e3M8A0iMrwx-25">
          <mxGeometry width="570" height="410" as="geometry" />
        </mxCell>
        <mxCell id="Cwkt_I89dFHHF9JNfeiC-15" value="&lt;span style=&quot;font-size: 13px;&quot;&gt;Регистрация пользователя&lt;/span&gt;" style="html=1;outlineConnect=0;whiteSpace=wrap;fillColor=#99ffff;shape=mxgraph.archimate3.application;appType=func;archiType=rounded;" vertex="1" parent="SR37dmXp9e3M8A0iMrwx-25">
          <mxGeometry x="20" y="55" width="150" height="75" as="geometry" />
        </mxCell>
        <mxCell id="Cwkt_I89dFHHF9JNfeiC-17" value="&lt;span style=&quot;font-size: 13px;&quot;&gt;Присвоение ролей&lt;/span&gt;" style="html=1;outlineConnect=0;whiteSpace=wrap;fillColor=#99ffff;shape=mxgraph.archimate3.application;appType=func;archiType=rounded;" vertex="1" parent="SR37dmXp9e3M8A0iMrwx-25">
          <mxGeometry x="20" y="145" width="150" height="75" as="geometry" />
        </mxCell>
        <mxCell id="Cwkt_I89dFHHF9JNfeiC-16" value="&lt;span style=&quot;font-size: 13px;&quot;&gt;Аутентификация&lt;/span&gt;" style="html=1;outlineConnect=0;whiteSpace=wrap;fillColor=#99ffff;shape=mxgraph.archimate3.application;appType=func;archiType=rounded;" vertex="1" parent="SR37dmXp9e3M8A0iMrwx-25">
          <mxGeometry x="20" y="235" width="150" height="75" as="geometry" />
        </mxCell>
        <mxCell id="Cwkt_I89dFHHF9JNfeiC-31" value="&lt;span style=&quot;font-size: 13px;&quot;&gt;Добавить товар в профиль пользователя&lt;/span&gt;" style="html=1;outlineConnect=0;whiteSpace=wrap;fillColor=#99ffff;shape=mxgraph.archimate3.application;appType=func;archiType=rounded;fontColor=default;labelBackgroundColor=none;strokeColor=default;align=center;verticalAlign=middle;fontFamily=Helvetica;fontSize=12;" vertex="1" parent="SR37dmXp9e3M8A0iMrwx-25">
          <mxGeometry x="200" y="55" width="150" height="75" as="geometry" />
        </mxCell>
        <mxCell id="Cwkt_I89dFHHF9JNfeiC-33" value="&lt;span style=&quot;font-size: 13px;&quot;&gt;Изменить товар пользователя&lt;/span&gt;" style="html=1;outlineConnect=0;whiteSpace=wrap;fillColor=#99ffff;shape=mxgraph.archimate3.application;appType=func;archiType=rounded;fontColor=default;labelBackgroundColor=none;strokeColor=default;align=center;verticalAlign=middle;fontFamily=Helvetica;fontSize=12;" vertex="1" parent="SR37dmXp9e3M8A0iMrwx-25">
          <mxGeometry x="200" y="145" width="150" height="75" as="geometry" />
        </mxCell>
        <mxCell id="Cwkt_I89dFHHF9JNfeiC-21" value="&lt;span style=&quot;font-size: 13px;&quot;&gt;Удалить товар пользователя&lt;/span&gt;" style="html=1;outlineConnect=0;whiteSpace=wrap;fillColor=#99ffff;shape=mxgraph.archimate3.application;appType=func;archiType=rounded;" vertex="1" parent="SR37dmXp9e3M8A0iMrwx-25">
          <mxGeometry x="200" y="235" width="150" height="75" as="geometry" />
        </mxCell>
        <mxCell id="Cwkt_I89dFHHF9JNfeiC-32" value="&lt;span style=&quot;font-size: 13px;&quot;&gt;Добавить услугу в профиль пользователя&lt;/span&gt;" style="html=1;outlineConnect=0;whiteSpace=wrap;fillColor=#99ffff;shape=mxgraph.archimate3.application;appType=func;archiType=rounded;fontColor=default;labelBackgroundColor=none;strokeColor=default;align=center;verticalAlign=middle;fontFamily=Helvetica;fontSize=12;" vertex="1" parent="SR37dmXp9e3M8A0iMrwx-25">
          <mxGeometry x="380" y="55" width="150" height="75" as="geometry" />
        </mxCell>
        <mxCell id="Cwkt_I89dFHHF9JNfeiC-34" value="&lt;span style=&quot;font-size: 13px;&quot;&gt;Изменить услугу пользователя&lt;/span&gt;" style="html=1;outlineConnect=0;whiteSpace=wrap;fillColor=#99ffff;shape=mxgraph.archimate3.application;appType=func;archiType=rounded;fontColor=default;labelBackgroundColor=none;strokeColor=default;align=center;verticalAlign=middle;fontFamily=Helvetica;fontSize=12;" vertex="1" parent="SR37dmXp9e3M8A0iMrwx-25">
          <mxGeometry x="380" y="148" width="150" height="75" as="geometry" />
        </mxCell>
        <mxCell id="Cwkt_I89dFHHF9JNfeiC-20" value="&lt;span style=&quot;font-size: 13px;&quot;&gt;Удалить услугу пользователя&lt;/span&gt;" style="html=1;outlineConnect=0;whiteSpace=wrap;fillColor=#99ffff;shape=mxgraph.archimate3.application;appType=func;archiType=rounded;" vertex="1" parent="SR37dmXp9e3M8A0iMrwx-25">
          <mxGeometry x="380" y="242" width="150" height="75" as="geometry" />
        </mxCell>
        <mxCell id="Cwkt_I89dFHHF9JNfeiC-58" value="&lt;span style=&quot;font-size: 13px;&quot;&gt;Сгенерировать отчёт активности пользователей&lt;/span&gt;" style="html=1;outlineConnect=0;whiteSpace=wrap;fillColor=#99ffff;shape=mxgraph.archimate3.application;appType=func;archiType=rounded;fontColor=default;labelBackgroundColor=none;strokeColor=default;align=center;verticalAlign=bottom;fontFamily=Helvetica;fontSize=12;" vertex="1" parent="SR37dmXp9e3M8A0iMrwx-25">
          <mxGeometry x="20" y="320" width="150" height="75" as="geometry" />
        </mxCell>
        <mxCell id="Cwkt_I89dFHHF9JNfeiC-18" value="&lt;span style=&quot;font-size: 13px;&quot;&gt;Нотификация нового пользователя&lt;/span&gt;" style="html=1;outlineConnect=0;whiteSpace=wrap;fillColor=#99ffff;shape=mxgraph.archimate3.application;appType=func;archiType=rounded;" vertex="1" parent="SR37dmXp9e3M8A0iMrwx-25">
          <mxGeometry x="200" y="320" width="150" height="75" as="geometry" />
        </mxCell>
        <mxCell id="SR37dmXp9e3M8A0iMrwx-26" value="" style="html=1;endArrow=block;dashed=0;endFill=1;rounded=0;strokeColor=#FF0000;startArrow=none;startFill=0;entryX=0.006;entryY=0.438;entryDx=0;entryDy=0;entryPerimeter=0;edgeStyle=elbowEdgeStyle;elbow=vertical;exitX=0.75;exitY=1;exitDx=0;exitDy=0;exitPerimeter=0;" edge="1" parent="Cwkt_I89dFHHF9JNfeiC-1" source="0Vjbv6TmKK2vR3b6kO95-1" target="20xxNQtNDSxM4y85c0yb-19">
          <mxGeometry width="160" relative="1" as="geometry">
            <mxPoint x="2730" y="1040" as="sourcePoint" />
            <mxPoint x="2590" y="1320.5" as="targetPoint" />
            <Array as="points">
              <mxPoint x="2890" y="1011" />
            </Array>
          </mxGeometry>
        </mxCell>
        <mxCell id="SR37dmXp9e3M8A0iMrwx-27" value="Поток 7.&lt;div&gt;[Услуга.ID]&lt;/div&gt;" style="edgeLabel;html=1;align=center;verticalAlign=middle;resizable=0;points=[];" vertex="1" connectable="0" parent="SR37dmXp9e3M8A0iMrwx-26">
          <mxGeometry x="0.3889" y="-2" relative="1" as="geometry">
            <mxPoint x="-37" y="-47" as="offset" />
          </mxGeometry>
        </mxCell>
        <mxCell id="SR37dmXp9e3M8A0iMrwx-28" value="" style="html=1;endArrow=block;dashed=0;endFill=1;rounded=0;strokeColor=#FF0000;startArrow=none;startFill=0;entryX=0;entryY=0.5;entryDx=0;entryDy=0;entryPerimeter=0;edgeStyle=elbowEdgeStyle;elbow=vertical;exitX=0.75;exitY=1;exitDx=0;exitDy=0;exitPerimeter=0;" edge="1" parent="Cwkt_I89dFHHF9JNfeiC-1" source="0Vjbv6TmKK2vR3b6kO95-8" target="20xxNQtNDSxM4y85c0yb-19">
          <mxGeometry width="160" relative="1" as="geometry">
            <mxPoint x="2730" y="1010" as="sourcePoint" />
            <mxPoint x="2260" y="1033" as="targetPoint" />
            <Array as="points">
              <mxPoint x="2830" y="1065" />
            </Array>
          </mxGeometry>
        </mxCell>
        <mxCell id="SR37dmXp9e3M8A0iMrwx-29" value="Поток 6.&lt;div&gt;[Товар.ID]&lt;/div&gt;" style="edgeLabel;html=1;align=center;verticalAlign=middle;resizable=0;points=[];" vertex="1" connectable="0" parent="SR37dmXp9e3M8A0iMrwx-28">
          <mxGeometry x="0.0093" relative="1" as="geometry">
            <mxPoint x="-128" y="-95" as="offset" />
          </mxGeometry>
        </mxCell>
        <mxCell id="SR37dmXp9e3M8A0iMrwx-34" value="" style="group" vertex="1" connectable="0" parent="Cwkt_I89dFHHF9JNfeiC-1">
          <mxGeometry x="880" y="630" width="250" height="410" as="geometry" />
        </mxCell>
        <mxCell id="GUKaVtx0HizPZe3K6GCj-7" value="&lt;div&gt;Сервис Торговых площадок&lt;/div&gt;&lt;div&gt;&lt;span style=&quot;background-color: initial;&quot;&gt;[Django/Python]&lt;/span&gt;&lt;br&gt;&lt;/div&gt;" style="html=1;outlineConnect=0;whiteSpace=wrap;fillColor=#99ffff;shape=mxgraph.archimate3.application;appType=serv;archiType=rounded;align=left;verticalAlign=top;strokeColor=#FF0000;" vertex="1" parent="SR37dmXp9e3M8A0iMrwx-34">
          <mxGeometry width="250" height="410" as="geometry" />
        </mxCell>
        <mxCell id="GUKaVtx0HizPZe3K6GCj-8" value="&lt;span style=&quot;font-size: 13px;&quot;&gt;Создать торговую площадку&lt;/span&gt;" style="html=1;outlineConnect=0;whiteSpace=wrap;fillColor=#99ffff;shape=mxgraph.archimate3.application;appType=func;archiType=rounded;fontColor=default;labelBackgroundColor=none;strokeColor=#FF0000;align=center;verticalAlign=middle;fontFamily=Helvetica;fontSize=12;" vertex="1" parent="SR37dmXp9e3M8A0iMrwx-34">
          <mxGeometry x="50" y="47.5" width="150" height="75" as="geometry" />
        </mxCell>
        <mxCell id="GUKaVtx0HizPZe3K6GCj-9" value="&lt;span style=&quot;font-size: 13px;&quot;&gt;Изменить торговую площадку&lt;/span&gt;" style="html=1;outlineConnect=0;whiteSpace=wrap;fillColor=#99ffff;shape=mxgraph.archimate3.application;appType=func;archiType=rounded;fontColor=default;labelBackgroundColor=none;strokeColor=#FF0000;align=center;verticalAlign=middle;fontFamily=Helvetica;fontSize=12;" vertex="1" parent="SR37dmXp9e3M8A0iMrwx-34">
          <mxGeometry x="50" y="130" width="150" height="75" as="geometry" />
        </mxCell>
        <mxCell id="GUKaVtx0HizPZe3K6GCj-10" value="&lt;span style=&quot;font-size: 13px;&quot;&gt;Удалить торговую площадку&lt;/span&gt;" style="html=1;outlineConnect=0;whiteSpace=wrap;fillColor=#99ffff;shape=mxgraph.archimate3.application;appType=func;archiType=rounded;fontColor=default;labelBackgroundColor=none;strokeColor=#FF0000;align=center;verticalAlign=middle;fontFamily=Helvetica;fontSize=12;" vertex="1" parent="SR37dmXp9e3M8A0iMrwx-34">
          <mxGeometry x="50" y="210" width="150" height="75" as="geometry" />
        </mxCell>
        <mxCell id="Cwkt_I89dFHHF9JNfeiC-43" value="&lt;span style=&quot;font-size: 13px;&quot;&gt;Сгенерировать отчёт по продажам&lt;/span&gt;" style="html=1;outlineConnect=0;whiteSpace=wrap;fillColor=#99ffff;shape=mxgraph.archimate3.application;appType=func;archiType=rounded;fontColor=default;labelBackgroundColor=none;strokeColor=default;align=center;verticalAlign=middle;fontFamily=Helvetica;fontSize=12;" vertex="1" parent="SR37dmXp9e3M8A0iMrwx-34">
          <mxGeometry x="50" y="295" width="150" height="75" as="geometry" />
        </mxCell>
        <mxCell id="SR37dmXp9e3M8A0iMrwx-35" value="" style="html=1;endArrow=block;dashed=0;endFill=1;rounded=0;strokeColor=#FF0000;startArrow=none;startFill=0;edgeStyle=elbowEdgeStyle;elbow=vertical;entryX=0.25;entryY=1;entryDx=0;entryDy=0;entryPerimeter=0;exitX=0.75;exitY=1;exitDx=0;exitDy=0;exitPerimeter=0;" edge="1" parent="Cwkt_I89dFHHF9JNfeiC-1" source="958O7Rn043K1TKB3Eg0P-3" target="958O7Rn043K1TKB3Eg0P-0">
          <mxGeometry width="160" relative="1" as="geometry">
            <mxPoint x="1430" y="1220" as="sourcePoint" />
            <mxPoint x="3000" y="1600" as="targetPoint" />
            <Array as="points">
              <mxPoint x="2460" y="1633" />
            </Array>
          </mxGeometry>
        </mxCell>
        <mxCell id="SR37dmXp9e3M8A0iMrwx-36" value="Поток 12.&lt;div&gt;Проведение платежей по аукциону&lt;/div&gt;" style="edgeLabel;html=1;align=center;verticalAlign=middle;resizable=0;points=[];" vertex="1" connectable="0" parent="SR37dmXp9e3M8A0iMrwx-35">
          <mxGeometry x="0.0093" relative="1" as="geometry">
            <mxPoint x="-504" y="-3" as="offset" />
          </mxGeometry>
        </mxCell>
        <mxCell id="SR37dmXp9e3M8A0iMrwx-37" value="" style="group" vertex="1" connectable="0" parent="Cwkt_I89dFHHF9JNfeiC-1">
          <mxGeometry x="3240" y="630" width="280" height="790" as="geometry" />
        </mxCell>
        <mxCell id="958O7Rn043K1TKB3Eg0P-0" value="&lt;div&gt;Сервис&amp;nbsp;&lt;span style=&quot;background-color: initial;&quot;&gt;Платежней&lt;/span&gt;&lt;/div&gt;&lt;div&gt;&lt;span style=&quot;background-color: initial;&quot;&gt;[Django/Python]&lt;/span&gt;&lt;br&gt;&lt;/div&gt;" style="html=1;outlineConnect=0;whiteSpace=wrap;fillColor=#99ffff;shape=mxgraph.archimate3.application;appType=serv;archiType=rounded;align=left;verticalAlign=top;strokeColor=#FF0000;" vertex="1" parent="SR37dmXp9e3M8A0iMrwx-37">
          <mxGeometry width="280" height="790" as="geometry" />
        </mxCell>
        <mxCell id="Cwkt_I89dFHHF9JNfeiC-45" value="&lt;span style=&quot;font-size: 13px;&quot;&gt;Инициировать платёжную операцию&lt;/span&gt;" style="html=1;outlineConnect=0;whiteSpace=wrap;fillColor=#99ffff;shape=mxgraph.archimate3.application;appType=func;archiType=rounded;fontColor=default;labelBackgroundColor=none;strokeColor=default;align=center;verticalAlign=middle;fontFamily=Helvetica;fontSize=12;" vertex="1" parent="SR37dmXp9e3M8A0iMrwx-37">
          <mxGeometry x="65" y="156" width="150" height="75" as="geometry" />
        </mxCell>
        <mxCell id="Cwkt_I89dFHHF9JNfeiC-46" value="&lt;span style=&quot;font-size: 13px;&quot;&gt;Учёт платёжной операции&lt;/span&gt;" style="html=1;outlineConnect=0;whiteSpace=wrap;fillColor=#99ffff;shape=mxgraph.archimate3.application;appType=func;archiType=rounded;fontColor=default;labelBackgroundColor=none;strokeColor=default;align=center;verticalAlign=middle;fontFamily=Helvetica;fontSize=12;" vertex="1" parent="SR37dmXp9e3M8A0iMrwx-37">
          <mxGeometry x="65" y="246" width="150" height="75" as="geometry" />
        </mxCell>
        <mxCell id="Cwkt_I89dFHHF9JNfeiC-47" value="&lt;span style=&quot;font-size: 13px;&quot;&gt;Авторизация платёжной операции&lt;/span&gt;" style="html=1;outlineConnect=0;whiteSpace=wrap;fillColor=#99ffff;shape=mxgraph.archimate3.application;appType=func;archiType=rounded;fontColor=default;labelBackgroundColor=none;strokeColor=default;align=center;verticalAlign=middle;fontFamily=Helvetica;fontSize=12;" vertex="1" parent="SR37dmXp9e3M8A0iMrwx-37">
          <mxGeometry x="65" y="336" width="150" height="75" as="geometry" />
        </mxCell>
        <mxCell id="Cwkt_I89dFHHF9JNfeiC-48" value="&lt;span style=&quot;font-size: 13px;&quot;&gt;Предоставить список и статус операций&lt;/span&gt;" style="html=1;outlineConnect=0;whiteSpace=wrap;fillColor=#99ffff;shape=mxgraph.archimate3.application;appType=func;archiType=rounded;fontColor=default;labelBackgroundColor=none;strokeColor=default;align=center;verticalAlign=middle;fontFamily=Helvetica;fontSize=12;" vertex="1" parent="SR37dmXp9e3M8A0iMrwx-37">
          <mxGeometry x="65" y="425" width="150" height="75" as="geometry" />
        </mxCell>
        <mxCell id="Cwkt_I89dFHHF9JNfeiC-49" value="&lt;span style=&quot;font-size: 13px;&quot;&gt;Инициировать отмену транзакции&lt;/span&gt;" style="html=1;outlineConnect=0;whiteSpace=wrap;fillColor=#99ffff;shape=mxgraph.archimate3.application;appType=func;archiType=rounded;fontColor=default;labelBackgroundColor=none;strokeColor=default;align=center;verticalAlign=middle;fontFamily=Helvetica;fontSize=12;" vertex="1" parent="SR37dmXp9e3M8A0iMrwx-37">
          <mxGeometry x="65" y="515" width="150" height="75" as="geometry" />
        </mxCell>
        <mxCell id="Cwkt_I89dFHHF9JNfeiC-50" value="&lt;span style=&quot;font-size: 13px;&quot;&gt;Запросить статус операции&lt;/span&gt;" style="html=1;outlineConnect=0;whiteSpace=wrap;fillColor=#99ffff;shape=mxgraph.archimate3.application;appType=func;archiType=rounded;fontColor=default;labelBackgroundColor=none;strokeColor=default;align=center;verticalAlign=middle;fontFamily=Helvetica;fontSize=12;" vertex="1" parent="SR37dmXp9e3M8A0iMrwx-37">
          <mxGeometry x="65" y="605" width="150" height="75" as="geometry" />
        </mxCell>
        <mxCell id="Cwkt_I89dFHHF9JNfeiC-51" value="&lt;span style=&quot;font-size: 13px;&quot;&gt;Предоставить статус операции&lt;/span&gt;" style="html=1;outlineConnect=0;whiteSpace=wrap;fillColor=#99ffff;shape=mxgraph.archimate3.application;appType=func;archiType=rounded;fontColor=default;labelBackgroundColor=none;strokeColor=default;align=center;verticalAlign=middle;fontFamily=Helvetica;fontSize=12;" vertex="1" parent="SR37dmXp9e3M8A0iMrwx-37">
          <mxGeometry x="65" y="695" width="150" height="75" as="geometry" />
        </mxCell>
        <mxCell id="Cwkt_I89dFHHF9JNfeiC-30" value="&lt;span style=&quot;font-size: 13px;&quot;&gt;Определить способ оплаты&lt;/span&gt;" style="html=1;outlineConnect=0;whiteSpace=wrap;fillColor=#99ffff;shape=mxgraph.archimate3.application;appType=func;archiType=rounded;fontColor=default;labelBackgroundColor=none;strokeColor=default;align=center;verticalAlign=middle;fontFamily=Helvetica;fontSize=12;" vertex="1" parent="SR37dmXp9e3M8A0iMrwx-37">
          <mxGeometry x="65" y="66" width="150" height="75" as="geometry" />
        </mxCell>
        <mxCell id="SR37dmXp9e3M8A0iMrwx-38" value="" style="group" vertex="1" connectable="0" parent="Cwkt_I89dFHHF9JNfeiC-1">
          <mxGeometry x="2940" y="630" width="280" height="870" as="geometry" />
        </mxCell>
        <mxCell id="20xxNQtNDSxM4y85c0yb-19" value="&lt;div&gt;Сервис Заказов&lt;/div&gt;&lt;div&gt;&lt;span style=&quot;background-color: initial;&quot;&gt;[Django/Python]&lt;/span&gt;&lt;br&gt;&lt;/div&gt;" style="html=1;outlineConnect=0;whiteSpace=wrap;fillColor=#99ffff;shape=mxgraph.archimate3.application;appType=serv;archiType=rounded;align=left;verticalAlign=top;strokeColor=#FF0000;" vertex="1" parent="SR37dmXp9e3M8A0iMrwx-38">
          <mxGeometry width="280" height="870" as="geometry" />
        </mxCell>
        <mxCell id="Cwkt_I89dFHHF9JNfeiC-22" value="&lt;span style=&quot;font-size: 13px;&quot;&gt;Создание заказа&lt;/span&gt;" style="html=1;outlineConnect=0;whiteSpace=wrap;fillColor=#99ffff;shape=mxgraph.archimate3.application;appType=func;archiType=rounded;" vertex="1" parent="SR37dmXp9e3M8A0iMrwx-38">
          <mxGeometry x="65" y="46" width="150" height="75" as="geometry" />
        </mxCell>
        <mxCell id="Cwkt_I89dFHHF9JNfeiC-23" value="&lt;span style=&quot;font-size: 13px;&quot;&gt;Редактирование заказа&lt;/span&gt;" style="html=1;outlineConnect=0;whiteSpace=wrap;fillColor=#99ffff;shape=mxgraph.archimate3.application;appType=func;archiType=rounded;" vertex="1" parent="SR37dmXp9e3M8A0iMrwx-38">
          <mxGeometry x="65" y="136" width="150" height="75" as="geometry" />
        </mxCell>
        <mxCell id="Cwkt_I89dFHHF9JNfeiC-24" value="&lt;span style=&quot;font-size: 13px;&quot;&gt;Сохранение заказа&lt;/span&gt;" style="html=1;outlineConnect=0;whiteSpace=wrap;fillColor=#99ffff;shape=mxgraph.archimate3.application;appType=func;archiType=rounded;fontColor=default;labelBackgroundColor=none;strokeColor=default;align=center;verticalAlign=middle;fontFamily=Helvetica;fontSize=12;" vertex="1" parent="SR37dmXp9e3M8A0iMrwx-38">
          <mxGeometry x="65" y="226" width="150" height="75" as="geometry" />
        </mxCell>
        <mxCell id="Cwkt_I89dFHHF9JNfeiC-25" value="&lt;span style=&quot;font-size: 13px;&quot;&gt;Подтверждение заказа&lt;/span&gt;" style="html=1;outlineConnect=0;whiteSpace=wrap;fillColor=#99ffff;shape=mxgraph.archimate3.application;appType=func;archiType=rounded;fontColor=default;labelBackgroundColor=none;strokeColor=default;align=center;verticalAlign=middle;fontFamily=Helvetica;fontSize=12;" vertex="1" parent="SR37dmXp9e3M8A0iMrwx-38">
          <mxGeometry x="65" y="316" width="150" height="75" as="geometry" />
        </mxCell>
        <mxCell id="Cwkt_I89dFHHF9JNfeiC-26" value="&lt;span style=&quot;font-size: 13px;&quot;&gt;Размещение заказа&lt;/span&gt;" style="html=1;outlineConnect=0;whiteSpace=wrap;fillColor=#99ffff;shape=mxgraph.archimate3.application;appType=func;archiType=rounded;fontColor=default;labelBackgroundColor=none;strokeColor=default;align=center;verticalAlign=middle;fontFamily=Helvetica;fontSize=12;" vertex="1" parent="SR37dmXp9e3M8A0iMrwx-38">
          <mxGeometry x="65" y="406" width="150" height="75" as="geometry" />
        </mxCell>
        <mxCell id="Cwkt_I89dFHHF9JNfeiC-27" value="&lt;span style=&quot;font-size: 13px;&quot;&gt;Отобразить все заказы&lt;/span&gt;" style="html=1;outlineConnect=0;whiteSpace=wrap;fillColor=#99ffff;shape=mxgraph.archimate3.application;appType=func;archiType=rounded;fontColor=default;labelBackgroundColor=none;strokeColor=default;align=center;verticalAlign=middle;fontFamily=Helvetica;fontSize=12;" vertex="1" parent="SR37dmXp9e3M8A0iMrwx-38">
          <mxGeometry x="65" y="496" width="150" height="75" as="geometry" />
        </mxCell>
        <mxCell id="Cwkt_I89dFHHF9JNfeiC-28" value="&lt;span style=&quot;font-size: 13px;&quot;&gt;Отобразить детали заказа&lt;/span&gt;" style="html=1;outlineConnect=0;whiteSpace=wrap;fillColor=#99ffff;shape=mxgraph.archimate3.application;appType=func;archiType=rounded;fontColor=default;labelBackgroundColor=none;strokeColor=default;align=center;verticalAlign=middle;fontFamily=Helvetica;fontSize=12;" vertex="1" parent="SR37dmXp9e3M8A0iMrwx-38">
          <mxGeometry x="65" y="586" width="150" height="75" as="geometry" />
        </mxCell>
        <mxCell id="Cwkt_I89dFHHF9JNfeiC-44" value="&lt;span style=&quot;font-size: 13px;&quot;&gt;Отобразить статистику заказов&lt;/span&gt;" style="html=1;outlineConnect=0;whiteSpace=wrap;fillColor=#99ffff;shape=mxgraph.archimate3.application;appType=func;archiType=rounded;fontColor=default;labelBackgroundColor=none;strokeColor=default;align=center;verticalAlign=middle;fontFamily=Helvetica;fontSize=12;" vertex="1" parent="SR37dmXp9e3M8A0iMrwx-38">
          <mxGeometry x="65" y="676" width="150" height="75" as="geometry" />
        </mxCell>
        <mxCell id="Cwkt_I89dFHHF9JNfeiC-29" value="&lt;span style=&quot;font-size: 13px;&quot;&gt;Нотификация об изменении состояния заказа&lt;/span&gt;" style="html=1;outlineConnect=0;whiteSpace=wrap;fillColor=#99ffff;shape=mxgraph.archimate3.application;appType=func;archiType=rounded;fontColor=default;labelBackgroundColor=none;strokeColor=default;align=center;verticalAlign=middle;fontFamily=Helvetica;fontSize=12;" vertex="1" parent="SR37dmXp9e3M8A0iMrwx-38">
          <mxGeometry x="65" y="765" width="150" height="75" as="geometry" />
        </mxCell>
        <mxCell id="SR37dmXp9e3M8A0iMrwx-39" value="" style="html=1;endArrow=block;dashed=0;endFill=1;rounded=0;exitX=0.25;exitY=1;exitDx=0;exitDy=0;exitPerimeter=0;strokeColor=#FF0000;startArrow=none;startFill=0;entryX=0.93;entryY=1.001;entryDx=0;entryDy=0;entryPerimeter=0;edgeStyle=elbowEdgeStyle;elbow=vertical;" edge="1" parent="Cwkt_I89dFHHF9JNfeiC-1" source="0Vjbv6TmKK2vR3b6kO95-8" target="GUKaVtx0HizPZe3K6GCj-18">
          <mxGeometry width="160" relative="1" as="geometry">
            <mxPoint x="2361" y="1080" as="sourcePoint" />
            <mxPoint x="2290" y="1310" as="targetPoint" />
            <Array as="points">
              <mxPoint x="2360" y="1070" />
            </Array>
          </mxGeometry>
        </mxCell>
        <mxCell id="SR37dmXp9e3M8A0iMrwx-40" value="Поток 3.&lt;div&gt;[Товар.ID]&lt;/div&gt;" style="edgeLabel;html=1;align=center;verticalAlign=middle;resizable=0;points=[];" vertex="1" connectable="0" parent="SR37dmXp9e3M8A0iMrwx-39">
          <mxGeometry x="0.3889" y="-2" relative="1" as="geometry">
            <mxPoint x="20" y="-7" as="offset" />
          </mxGeometry>
        </mxCell>
        <mxCell id="SR37dmXp9e3M8A0iMrwx-41" value="" style="html=1;endArrow=block;dashed=0;endFill=1;rounded=0;exitX=0.25;exitY=1;exitDx=0;exitDy=0;exitPerimeter=0;strokeColor=#FF0000;startArrow=none;startFill=0;entryX=0.75;entryY=0;entryDx=0;entryDy=0;entryPerimeter=0;edgeStyle=elbowEdgeStyle;elbow=vertical;" edge="1" parent="Cwkt_I89dFHHF9JNfeiC-1" target="20xxNQtNDSxM4y85c0yb-19">
          <mxGeometry width="160" relative="1" as="geometry">
            <mxPoint x="2957.5" y="400" as="sourcePoint" />
            <mxPoint x="2880.5" y="630" as="targetPoint" />
            <Array as="points">
              <mxPoint x="3000" y="510" />
            </Array>
          </mxGeometry>
        </mxCell>
        <mxCell id="SR37dmXp9e3M8A0iMrwx-42" value="Поток 6.&lt;div&gt;Добавление товара в заказ&lt;br&gt;&lt;/div&gt;" style="edgeLabel;html=1;align=center;verticalAlign=middle;resizable=0;points=[];" vertex="1" connectable="0" parent="SR37dmXp9e3M8A0iMrwx-41">
          <mxGeometry x="0.0093" relative="1" as="geometry">
            <mxPoint x="-1" y="-2" as="offset" />
          </mxGeometry>
        </mxCell>
        <mxCell id="SR37dmXp9e3M8A0iMrwx-43" value="" style="html=1;endArrow=block;dashed=0;endFill=1;rounded=0;exitX=0.816;exitY=1.001;exitDx=0;exitDy=0;exitPerimeter=0;strokeColor=#FF0000;startArrow=none;startFill=0;entryX=0.75;entryY=0;entryDx=0;entryDy=0;entryPerimeter=0;edgeStyle=elbowEdgeStyle;elbow=vertical;" edge="1" parent="Cwkt_I89dFHHF9JNfeiC-1" source="Cwkt_I89dFHHF9JNfeiC-5" target="20xxNQtNDSxM4y85c0yb-19">
          <mxGeometry width="160" relative="1" as="geometry">
            <mxPoint x="2870" y="400" as="sourcePoint" />
            <mxPoint x="2992.5" y="630" as="targetPoint" />
            <Array as="points">
              <mxPoint x="2940" y="550" />
            </Array>
          </mxGeometry>
        </mxCell>
        <mxCell id="SR37dmXp9e3M8A0iMrwx-44" value="Поток 7.&lt;div&gt;Добавление услуги в заказ&lt;br&gt;&lt;/div&gt;" style="edgeLabel;html=1;align=center;verticalAlign=middle;resizable=0;points=[];" vertex="1" connectable="0" parent="SR37dmXp9e3M8A0iMrwx-43">
          <mxGeometry x="0.0093" relative="1" as="geometry">
            <mxPoint x="50" as="offset" />
          </mxGeometry>
        </mxCell>
        <mxCell id="SR37dmXp9e3M8A0iMrwx-45" value="" style="html=1;endArrow=block;dashed=0;endFill=1;rounded=0;exitX=0.25;exitY=1;exitDx=0;exitDy=0;exitPerimeter=0;strokeColor=#FF0000;startArrow=none;startFill=0;entryX=0.888;entryY=0.998;entryDx=0;entryDy=0;entryPerimeter=0;edgeStyle=elbowEdgeStyle;elbow=vertical;" edge="1" parent="Cwkt_I89dFHHF9JNfeiC-1" source="0Vjbv6TmKK2vR3b6kO95-1" target="GUKaVtx0HizPZe3K6GCj-18">
          <mxGeometry width="160" relative="1" as="geometry">
            <mxPoint x="2443" y="950" as="sourcePoint" />
            <mxPoint x="2280" y="1050" as="targetPoint" />
            <Array as="points">
              <mxPoint x="2480" y="1100" />
            </Array>
          </mxGeometry>
        </mxCell>
        <mxCell id="SR37dmXp9e3M8A0iMrwx-46" value="Поток 3.&lt;div&gt;[Услуга.ID]&lt;/div&gt;" style="edgeLabel;html=1;align=center;verticalAlign=middle;resizable=0;points=[];" vertex="1" connectable="0" parent="SR37dmXp9e3M8A0iMrwx-45">
          <mxGeometry x="0.3889" y="-2" relative="1" as="geometry">
            <mxPoint x="253" y="-5" as="offset" />
          </mxGeometry>
        </mxCell>
        <mxCell id="4805N8KI2oSrUR07Fmfk-0" value="" style="edgeStyle=elbowEdgeStyle;html=1;endArrow=block;dashed=0;endFill=1;rounded=0;entryX=0.25;entryY=0;entryDx=0;entryDy=0;entryPerimeter=0;strokeColor=#FF0000;elbow=vertical;exitX=0.001;exitY=0.832;exitDx=0;exitDy=0;exitPerimeter=0;" edge="1" parent="Cwkt_I89dFHHF9JNfeiC-1" source="Cwkt_I89dFHHF9JNfeiC-5" target="958O7Rn043K1TKB3Eg0P-3">
          <mxGeometry width="160" relative="1" as="geometry">
            <mxPoint x="2162.5" y="392.5" as="sourcePoint" />
            <mxPoint x="1800.5" y="622.5" as="targetPoint" />
            <Array as="points">
              <mxPoint x="1620" y="346" />
            </Array>
          </mxGeometry>
        </mxCell>
        <mxCell id="4805N8KI2oSrUR07Fmfk-1" value="&lt;div&gt;Поток 8.&lt;/div&gt;&lt;div&gt;Создание аукциона,&lt;/div&gt;&lt;div&gt;выбор торговой площадки&lt;/div&gt;&lt;div&gt;и добавление&amp;nbsp;&lt;/div&gt;&lt;div&gt;заказов в аукцион&lt;/div&gt;" style="edgeLabel;html=1;align=center;verticalAlign=middle;resizable=0;points=[];" vertex="1" connectable="0" parent="4805N8KI2oSrUR07Fmfk-0">
          <mxGeometry x="0.1766" y="-1" relative="1" as="geometry">
            <mxPoint x="-151" y="135" as="offset" />
          </mxGeometry>
        </mxCell>
        <mxCell id="4805N8KI2oSrUR07Fmfk-2" value="" style="html=1;endArrow=block;dashed=0;endFill=1;rounded=0;exitX=0.006;exitY=0.572;exitDx=0;exitDy=0;exitPerimeter=0;strokeColor=#FF0000;startArrow=none;startFill=0;entryX=0.943;entryY=0.998;entryDx=0;entryDy=0;entryPerimeter=0;edgeStyle=elbowEdgeStyle;" edge="1" parent="Cwkt_I89dFHHF9JNfeiC-1" target="958O7Rn043K1TKB3Eg0P-3">
          <mxGeometry width="160" relative="1" as="geometry">
            <mxPoint x="2940.0000000000005" y="1157" as="sourcePoint" />
            <mxPoint x="1345.82" y="1169.36" as="targetPoint" />
            <Array as="points">
              <mxPoint x="1396" y="1150" />
            </Array>
          </mxGeometry>
        </mxCell>
        <mxCell id="4805N8KI2oSrUR07Fmfk-3" value="Поток 8.&lt;div&gt;[Заказ.ID]&lt;/div&gt;" style="edgeLabel;html=1;align=center;verticalAlign=middle;resizable=0;points=[];" vertex="1" connectable="0" parent="4805N8KI2oSrUR07Fmfk-2">
          <mxGeometry x="0.3889" y="-2" relative="1" as="geometry">
            <mxPoint x="-362" y="5" as="offset" />
          </mxGeometry>
        </mxCell>
        <mxCell id="4805N8KI2oSrUR07Fmfk-4" value="" style="html=1;endArrow=block;dashed=0;endFill=1;rounded=0;exitX=0.75;exitY=1;exitDx=0;exitDy=0;exitPerimeter=0;strokeColor=#FF0000;startArrow=none;startFill=0;entryX=0.25;entryY=1;entryDx=0;entryDy=0;entryPerimeter=0;edgeStyle=elbowEdgeStyle;elbow=vertical;" edge="1" parent="Cwkt_I89dFHHF9JNfeiC-1" source="GUKaVtx0HizPZe3K6GCj-7" target="958O7Rn043K1TKB3Eg0P-3">
          <mxGeometry width="160" relative="1" as="geometry">
            <mxPoint x="1470.5" y="1232.5" as="sourcePoint" />
            <mxPoint x="1307.5" y="1332.5" as="targetPoint" />
            <Array as="points">
              <mxPoint x="1140" y="1210" />
            </Array>
          </mxGeometry>
        </mxCell>
        <mxCell id="4805N8KI2oSrUR07Fmfk-5" value="Поток 8.&lt;div&gt;[Торговая площадка.ID]&lt;/div&gt;" style="edgeLabel;html=1;align=center;verticalAlign=middle;resizable=0;points=[];" vertex="1" connectable="0" parent="4805N8KI2oSrUR07Fmfk-4">
          <mxGeometry x="0.3889" y="-2" relative="1" as="geometry">
            <mxPoint x="-32" y="-11" as="offset" />
          </mxGeometry>
        </mxCell>
        <mxCell id="4805N8KI2oSrUR07Fmfk-6" value="" style="edgeStyle=orthogonalEdgeStyle;html=1;endArrow=block;dashed=0;endFill=1;rounded=0;entryX=0.5;entryY=0;entryDx=0;entryDy=0;entryPerimeter=0;exitX=0;exitY=0.907;exitDx=0;exitDy=0;exitPerimeter=0;strokeColor=#FF0000;elbow=vertical;" edge="1" parent="Cwkt_I89dFHHF9JNfeiC-1" source="Cwkt_I89dFHHF9JNfeiC-5" target="958O7Rn043K1TKB3Eg0P-3">
          <mxGeometry width="160" relative="1" as="geometry">
            <mxPoint x="1932" y="392.5" as="sourcePoint" />
            <mxPoint x="1570" y="622.5" as="targetPoint" />
            <Array as="points">
              <mxPoint x="1285" y="370" />
            </Array>
          </mxGeometry>
        </mxCell>
        <mxCell id="4805N8KI2oSrUR07Fmfk-7" value="&lt;div&gt;Поток 9.&lt;/div&gt;&lt;div&gt;Пользователи ставят ставки&lt;/div&gt;&lt;div&gt;по товарам и услугам&lt;/div&gt;" style="edgeLabel;html=1;align=center;verticalAlign=middle;resizable=0;points=[];" vertex="1" connectable="0" parent="4805N8KI2oSrUR07Fmfk-6">
          <mxGeometry x="0.1766" y="-1" relative="1" as="geometry">
            <mxPoint x="-91" y="31" as="offset" />
          </mxGeometry>
        </mxCell>
        <mxCell id="4805N8KI2oSrUR07Fmfk-8" value="" style="group" vertex="1" connectable="0" parent="Cwkt_I89dFHHF9JNfeiC-1">
          <mxGeometry x="430" y="630" width="410" height="420" as="geometry" />
        </mxCell>
        <mxCell id="20xxNQtNDSxM4y85c0yb-3" value="&lt;div&gt;Сервис Заявок&lt;/div&gt;&lt;div&gt;&lt;span style=&quot;background-color: initial;&quot;&gt;[Django/Python]&lt;/span&gt;&lt;br&gt;&lt;/div&gt;" style="html=1;outlineConnect=0;whiteSpace=wrap;fillColor=#99ffff;shape=mxgraph.archimate3.application;appType=serv;archiType=rounded;align=left;verticalAlign=top;strokeColor=#FF0000;" vertex="1" parent="4805N8KI2oSrUR07Fmfk-8">
          <mxGeometry width="410" height="420" as="geometry" />
        </mxCell>
        <mxCell id="Cwkt_I89dFHHF9JNfeiC-52" value="&lt;span style=&quot;font-size: 13px;&quot;&gt;Создать заявку на апелляцию&amp;nbsp;&lt;/span&gt;" style="html=1;outlineConnect=0;whiteSpace=wrap;fillColor=#99ffff;shape=mxgraph.archimate3.application;appType=func;archiType=rounded;fontColor=default;labelBackgroundColor=none;strokeColor=default;align=center;verticalAlign=middle;fontFamily=Helvetica;fontSize=12;" vertex="1" parent="4805N8KI2oSrUR07Fmfk-8">
          <mxGeometry x="220" y="53" width="150" height="75" as="geometry" />
        </mxCell>
        <mxCell id="Cwkt_I89dFHHF9JNfeiC-53" value="&lt;span style=&quot;font-size: 13px;&quot;&gt;Регистрация заявки на апелляцию&lt;/span&gt;" style="html=1;outlineConnect=0;whiteSpace=wrap;fillColor=#99ffff;shape=mxgraph.archimate3.application;appType=func;archiType=rounded;fontColor=default;labelBackgroundColor=none;strokeColor=default;align=center;verticalAlign=middle;fontFamily=Helvetica;fontSize=12;" vertex="1" parent="4805N8KI2oSrUR07Fmfk-8">
          <mxGeometry x="220" y="143" width="150" height="75" as="geometry" />
        </mxCell>
        <mxCell id="Cwkt_I89dFHHF9JNfeiC-54" value="&lt;span style=&quot;font-size: 13px;&quot;&gt;Обновить статус заявки на апелляцию&lt;/span&gt;" style="html=1;outlineConnect=0;whiteSpace=wrap;fillColor=#99ffff;shape=mxgraph.archimate3.application;appType=func;archiType=rounded;fontColor=default;labelBackgroundColor=none;strokeColor=default;align=center;verticalAlign=middle;fontFamily=Helvetica;fontSize=12;" vertex="1" parent="4805N8KI2oSrUR07Fmfk-8">
          <mxGeometry x="220" y="234" width="150" height="75" as="geometry" />
        </mxCell>
        <mxCell id="Cwkt_I89dFHHF9JNfeiC-55" value="&lt;span style=&quot;font-size: 13px;&quot;&gt;Создать заявку на техподдержку&lt;/span&gt;" style="html=1;outlineConnect=0;whiteSpace=wrap;fillColor=#99ffff;shape=mxgraph.archimate3.application;appType=func;archiType=rounded;fontColor=default;labelBackgroundColor=none;strokeColor=default;align=center;verticalAlign=middle;fontFamily=Helvetica;fontSize=12;" vertex="1" parent="4805N8KI2oSrUR07Fmfk-8">
          <mxGeometry x="22.100000000000023" y="53" width="150" height="75" as="geometry" />
        </mxCell>
        <mxCell id="Cwkt_I89dFHHF9JNfeiC-56" value="&lt;span style=&quot;font-size: 13px;&quot;&gt;Регистрация заявки на техподдержку&lt;/span&gt;" style="html=1;outlineConnect=0;whiteSpace=wrap;fillColor=#99ffff;shape=mxgraph.archimate3.application;appType=func;archiType=rounded;fontColor=default;labelBackgroundColor=none;strokeColor=default;align=center;verticalAlign=middle;fontFamily=Helvetica;fontSize=12;" vertex="1" parent="4805N8KI2oSrUR07Fmfk-8">
          <mxGeometry x="22.100000000000023" y="144" width="150" height="75" as="geometry" />
        </mxCell>
        <mxCell id="Cwkt_I89dFHHF9JNfeiC-57" value="&lt;span style=&quot;font-size: 13px;&quot;&gt;Обновление статуса заявки&lt;/span&gt;" style="html=1;outlineConnect=0;whiteSpace=wrap;fillColor=#99ffff;shape=mxgraph.archimate3.application;appType=func;archiType=rounded;fontColor=default;labelBackgroundColor=none;strokeColor=default;align=center;verticalAlign=middle;fontFamily=Helvetica;fontSize=12;" vertex="1" parent="4805N8KI2oSrUR07Fmfk-8">
          <mxGeometry x="22.100000000000023" y="235" width="150" height="75" as="geometry" />
        </mxCell>
        <mxCell id="Cwkt_I89dFHHF9JNfeiC-37" value="&lt;span style=&quot;font-size: 13px;&quot;&gt;Обработать новую заявку на аукцион&lt;/span&gt;" style="html=1;outlineConnect=0;whiteSpace=wrap;fillColor=#99ffff;shape=mxgraph.archimate3.application;appType=func;archiType=rounded;fontColor=default;labelBackgroundColor=none;strokeColor=default;align=center;verticalAlign=middle;fontFamily=Helvetica;fontSize=12;flipV=0;" vertex="1" parent="4805N8KI2oSrUR07Fmfk-8">
          <mxGeometry x="220" y="325" width="150" height="75" as="geometry" />
        </mxCell>
        <mxCell id="4805N8KI2oSrUR07Fmfk-9" value="" style="edgeStyle=elbowEdgeStyle;html=1;endArrow=block;dashed=0;endFill=1;rounded=0;entryX=1;entryY=0;entryDx=-2.9;entryDy=2.9;entryPerimeter=0;strokeColor=#FF0000;elbow=vertical;exitX=0.001;exitY=0.832;exitDx=0;exitDy=0;exitPerimeter=0;" edge="1" parent="Cwkt_I89dFHHF9JNfeiC-1" target="20xxNQtNDSxM4y85c0yb-3">
          <mxGeometry width="160" relative="1" as="geometry">
            <mxPoint x="1939.78" y="320" as="sourcePoint" />
            <mxPoint x="1283.78" y="604" as="targetPoint" />
            <Array as="points">
              <mxPoint x="1618.78" y="320" />
            </Array>
          </mxGeometry>
        </mxCell>
        <mxCell id="4805N8KI2oSrUR07Fmfk-10" value="&lt;div&gt;Поток 10.&lt;/div&gt;&lt;div&gt;Заявка в техническую поддержку&lt;/div&gt;" style="edgeLabel;html=1;align=center;verticalAlign=middle;resizable=0;points=[];" vertex="1" connectable="0" parent="4805N8KI2oSrUR07Fmfk-9">
          <mxGeometry x="0.1766" y="-1" relative="1" as="geometry">
            <mxPoint x="708" y="1" as="offset" />
          </mxGeometry>
        </mxCell>
        <mxCell id="4805N8KI2oSrUR07Fmfk-11" value="" style="edgeStyle=elbowEdgeStyle;html=1;endArrow=block;dashed=0;endFill=1;rounded=0;entryX=0.75;entryY=0;entryDx=0;entryDy=0;entryPerimeter=0;strokeColor=#FF0000;elbow=vertical;exitX=0.001;exitY=0.832;exitDx=0;exitDy=0;exitPerimeter=0;" edge="1" parent="Cwkt_I89dFHHF9JNfeiC-1" target="20xxNQtNDSxM4y85c0yb-3">
          <mxGeometry width="160" relative="1" as="geometry">
            <mxPoint x="1940" y="272" as="sourcePoint" />
            <mxPoint x="837.22" y="585" as="targetPoint" />
            <Array as="points">
              <mxPoint x="1619" y="272" />
            </Array>
          </mxGeometry>
        </mxCell>
        <mxCell id="4805N8KI2oSrUR07Fmfk-12" value="&lt;div&gt;Поток 11.&lt;/div&gt;&lt;div&gt;Заявка на аппеляцию аукциона&lt;/div&gt;" style="edgeLabel;html=1;align=center;verticalAlign=middle;resizable=0;points=[];" vertex="1" connectable="0" parent="4805N8KI2oSrUR07Fmfk-11">
          <mxGeometry x="0.1766" y="-1" relative="1" as="geometry">
            <mxPoint x="793" y="1" as="offset" />
          </mxGeometry>
        </mxCell>
        <mxCell id="4805N8KI2oSrUR07Fmfk-13" value="" style="html=1;endArrow=block;dashed=0;endFill=1;rounded=0;exitX=0.75;exitY=1;exitDx=0;exitDy=0;exitPerimeter=0;strokeColor=#FF0000;startArrow=none;startFill=0;entryX=0.25;entryY=1;entryDx=0;entryDy=0;entryPerimeter=0;edgeStyle=elbowEdgeStyle;elbow=vertical;" edge="1" parent="Cwkt_I89dFHHF9JNfeiC-1" source="20xxNQtNDSxM4y85c0yb-3" target="958O7Rn043K1TKB3Eg0P-3">
          <mxGeometry width="160" relative="1" as="geometry">
            <mxPoint x="880.5" y="1140" as="sourcePoint" />
            <mxPoint x="1035.5" y="1240" as="targetPoint" />
            <Array as="points">
              <mxPoint x="952.5" y="1310" />
            </Array>
          </mxGeometry>
        </mxCell>
        <mxCell id="4805N8KI2oSrUR07Fmfk-14" value="Поток 11.&lt;div&gt;[Аукцион.ID]&lt;/div&gt;" style="edgeLabel;html=1;align=center;verticalAlign=middle;resizable=0;points=[];" vertex="1" connectable="0" parent="4805N8KI2oSrUR07Fmfk-13">
          <mxGeometry x="0.3889" y="-2" relative="1" as="geometry">
            <mxPoint x="-253" y="-6" as="offset" />
          </mxGeometry>
        </mxCell>
        <mxCell id="4805N8KI2oSrUR07Fmfk-24" value="" style="html=1;endArrow=block;dashed=0;endFill=1;rounded=0;strokeColor=#FF0000;startArrow=none;startFill=0;entryX=0.5;entryY=1;entryDx=0;entryDy=0;entryPerimeter=0;edgeStyle=elbowEdgeStyle;elbow=vertical;exitX=0.25;exitY=0;exitDx=0;exitDy=0;exitPerimeter=0;" edge="1" parent="Cwkt_I89dFHHF9JNfeiC-1" source="20xxNQtNDSxM4y85c0yb-19" target="Cwkt_I89dFHHF9JNfeiC-5">
          <mxGeometry width="160" relative="1" as="geometry">
            <mxPoint x="2848" y="946" as="sourcePoint" />
            <mxPoint x="2952" y="1021" as="targetPoint" />
            <Array as="points">
              <mxPoint x="2780" y="590" />
            </Array>
          </mxGeometry>
        </mxCell>
        <mxCell id="4805N8KI2oSrUR07Fmfk-25" value="Поток 13.&lt;div&gt;Уведомление пользователя&lt;/div&gt;" style="edgeLabel;html=1;align=center;verticalAlign=middle;resizable=0;points=[];" vertex="1" connectable="0" parent="4805N8KI2oSrUR07Fmfk-24">
          <mxGeometry x="0.3889" y="-2" relative="1" as="geometry">
            <mxPoint x="49" y="-128" as="offset" />
          </mxGeometry>
        </mxCell>
        <mxCell id="4805N8KI2oSrUR07Fmfk-26" value="" style="html=1;endArrow=block;dashed=0;endFill=1;rounded=0;strokeColor=#FF0000;startArrow=none;startFill=0;edgeStyle=elbowEdgeStyle;elbow=vertical;exitX=0.909;exitY=0.001;exitDx=0;exitDy=0;exitPerimeter=0;entryX=0.5;entryY=1;entryDx=0;entryDy=0;entryPerimeter=0;" edge="1" parent="Cwkt_I89dFHHF9JNfeiC-1" source="GUKaVtx0HizPZe3K6GCj-18" target="Cwkt_I89dFHHF9JNfeiC-5">
          <mxGeometry width="160" relative="1" as="geometry">
            <mxPoint x="3020" y="640" as="sourcePoint" />
            <mxPoint x="2744" y="411" as="targetPoint" />
            <Array as="points">
              <mxPoint x="2970" y="590" />
            </Array>
          </mxGeometry>
        </mxCell>
        <mxCell id="4805N8KI2oSrUR07Fmfk-28" value="" style="html=1;endArrow=block;dashed=0;endFill=1;rounded=0;strokeColor=#FF0000;startArrow=none;startFill=0;edgeStyle=elbowEdgeStyle;elbow=vertical;exitX=0.75;exitY=0;exitDx=0;exitDy=0;exitPerimeter=0;entryX=0.5;entryY=1;entryDx=0;entryDy=0;entryPerimeter=0;" edge="1" parent="Cwkt_I89dFHHF9JNfeiC-1" source="958O7Rn043K1TKB3Eg0P-3" target="Cwkt_I89dFHHF9JNfeiC-5">
          <mxGeometry width="160" relative="1" as="geometry">
            <mxPoint x="2268" y="640" as="sourcePoint" />
            <mxPoint x="2560" y="410" as="targetPoint" />
            <Array as="points">
              <mxPoint x="1960" y="590" />
            </Array>
          </mxGeometry>
        </mxCell>
        <mxCell id="F4TqYkj5JBp-BTcy2oGG-0" value="Описание процесса:&lt;div&gt;1. Регистрация пользователя&lt;/div&gt;&lt;div&gt;2. Пользователь добавляет товары и/или услуги в профиль&lt;/div&gt;&lt;div&gt;3. Пользователь создает Заказ и добавляет в заказ товары и/или услуги&lt;/div&gt;&lt;div&gt;4. Пользователь создает аукцион, добавляет созданные заказы&lt;/div&gt;&lt;div&gt;5. По завершению аукциона происходят Платежи&lt;/div&gt;&lt;div&gt;6. Пользователь - участник аукциона может сделать заявку на аппеляцию результатов аукциона, если аппеляция валидна то происходит отмена платежа&lt;/div&gt;&lt;div&gt;7. Пользователь может написать в техническую поддержку заявка&lt;/div&gt;" style="text;html=1;align=left;verticalAlign=top;whiteSpace=wrap;rounded=0;" vertex="1" parent="Cwkt_I89dFHHF9JNfeiC-1">
          <mxGeometry x="20" y="2760" width="1010" height="224" as="geometry" />
        </mxCell>
      </root>
    </mxGraphModel>
  </diagram>
</mxfile>
